<svg xmlns="http://www.w3.org/2000/svg" width="13" height="12" viewBox="0 0 13 12">
  <path fill="#FFF" d="M6.43383753,0.153837533 C7.21617131,0.153837533 7.85037815,0.78804437 7.85037815,1.57037815 L7.84967507,4.40283753 L10.6834594,4.40345938 C11.4657932,4.40345938 12.1,5.03766622 12.1,5.82 C12.1,6.60233378 11.4657932,7.23654062 10.6834594,7.23654062 L7.84967507,7.23583753 L7.85037815,10.0696218 C7.85037815,10.8519556 7.21617131,11.4861625 6.43383753,11.4861625 C5.65150375,11.4861625 5.01729692,10.8519556 5.01729692,10.0696218 L5.01667507,7.23583753 L2.18421568,7.23654062 C1.4018819,7.23654062 0.767675067,6.60233378 0.767675067,5.82 C0.767675067,5.03766622 1.4018819,4.40345938 2.18421568,4.40345938 L5.01667507,4.40283753 L5.01729692,1.57037815 C5.01729692,0.78804437 5.65150375,0.153837533 6.43383753,0.153837533 Z"/>
</svg>
