<svg xmlns="http://www.w3.org/2000/svg" width="32" height="33" viewBox="0 0 32 33">
  <g fill="none" transform="translate(0 .31)">
    <path fill="#000" d="M22.973125,16.0568125 C22.3581875,15.7645 21.73075,15.5126875 21.0923125,15.30175 C23.16,13.74975 24.5,11.2784375 24.5,8.5 C24.5,3.813125 20.6869375,0 16,0 C11.3130625,0 7.5,3.813125 7.5,8.5 C7.5,11.2815 8.843,13.75525 10.9145625,15.3069375 C9.0165625,15.9318125 7.235625,16.904125 5.676875,18.18625 C2.818625,20.5373125 0.8313125,23.816625 0.081125,27.4201875 C-0.154,28.5493125 0.1276875,29.7090625 0.8538125,30.6019375 C1.576375,31.4904375 2.6478125,32 3.7933125,32 L19.1875,32 C19.877875,32 20.4375,31.440375 20.4375,30.75 C20.4375,30.059625 19.877875,29.5 19.1875,29.5 L3.7933125,29.5 C3.2596875,29.5 2.93775,29.202125 2.793375,29.024625 C2.5440625,28.7180625 2.4475625,28.319 2.528625,27.9296875 C3.8258125,21.69875 9.3218125,17.147125 15.668625,16.993625 C15.7785625,16.997875 15.889,17 16,17 C16.1120625,17 16.223625,16.9978125 16.334625,16.9935 C18.279625,17.039125 20.15025,17.483 21.899875,18.31475 C22.5234375,18.611 23.2690625,18.3459375 23.5654375,17.722375 C23.8618125,17.098875 23.5966875,16.3531875 22.973125,16.0568125 Z M16.304875,14.4923125 C16.2034375,14.4905 16.1018125,14.4895625 16,14.4895625 C15.899125,14.4895625 15.79825,14.4905625 15.6975,14.4924375 C12.5290625,14.334375 10,11.707 10,8.5 C10,5.1915625 12.6915625,2.5 16,2.5 C19.3084375,2.5 22,5.1915625 22,8.5 C22,11.7061875 19.4721875,14.3330625 16.304875,14.4923125 Z"/>
    <path fill="#2770A0" d="M30.75,24.8125 L27.3125,24.8125 L27.3125,21.375 C27.3125,20.684625 26.752875,20.125 26.0625,20.125 C25.372125,20.125 24.8125,20.684625 24.8125,21.375 L24.8125,24.8125 L21.375,24.8125 C20.684625,24.8125 20.125,25.372125 20.125,26.0625 C20.125,26.752875 20.684625,27.3125 21.375,27.3125 L24.8125,27.3125 L24.8125,30.75 C24.8125,31.440375 25.372125,32 26.0625,32 C26.752875,32 27.3125,31.440375 27.3125,30.75 L27.3125,27.3125 L30.75,27.3125 C31.440375,27.3125 32,26.752875 32,26.0625 C32,25.372125 31.440375,24.8125 30.75,24.8125 Z"/>
  </g>
</svg>
