<svg xmlns="http://www.w3.org/2000/svg" viewBox="0 0 64 64"><defs><style>.cls-1,.cls-3{fill:none;stroke:#2770a0;stroke-miterlimit:10;stroke-width:2px;}.cls-2{fill:#2770a0;}.cls-3{stroke-linecap:round;}</style></defs><g id="Final_drawing" data-name="Final drawing"><path class="cls-1" d="M37.39,57.36H4.55a3.06,3.06,0,0,1-3-3V4.86A3.06,3.06,0,0,1,4.55,1.81H32.91a3.76,3.76,0,0,1,2.8,1.3L46.33,15A4.72,4.72,0,0,1,47.5,18.1V46.45"/><path class="cls-1" d="M47,17.36H37.15a3,3,0,0,1-3-3V2.92"/><path class="cls-2" d="M56.7,38.36l4.46,4.47L43.61,60.38l-5.52,1,1-5.51L56.7,38.36m0-2.31a1.24,1.24,0,0,0-.88.36L37.56,54.67a1.29,1.29,0,0,0-.34.64l-1.3,6.84a1.25,1.25,0,0,0,1.22,1.48l.23,0,6.84-1.3a1.21,1.21,0,0,0,.65-.34L63.11,43.71a1.24,1.24,0,0,0,0-1.76l-5.53-5.54a1.26,1.26,0,0,0-.88-.36Z"/><line class="cls-1" x1="38.13" y1="54.7" x2="44.76" y2="61.33"/><line class="cls-1" x1="51.9" y1="41.37" x2="58.53" y2="48"/><line class="cls-3" x1="9.08" y1="23.03" x2="38.42" y2="23.03"/><line class="cls-3" x1="9.08" y1="31.13" x2="38.42" y2="31.13"/><line class="cls-3" x1="8.99" y1="39.23" x2="19.15" y2="39.23"/><line class="cls-3" x1="22.41" y1="39.23" x2="25.56" y2="39.23"/></g></svg>