<svg xmlns="http://www.w3.org/2000/svg" width="16" height="13" viewBox="0 0 16 13">
  <path d="M0.410733293,6.05602894 C0.256155854,6.23324832 0.0514960057,6.45314076 0.0698557781,6.68632416 C0.0882155505,6.91950756 0.32663369,7.13741696 0.507270161,7.28898617 L5.58121696,11.7588226 C5.7440859,11.8958179 5.9460434,11.9692706 6.15806916,11.9692706 C6.18412819,11.9692706 6.21077947,11.9681047 6.23743076,11.9657729 C6.4772923,11.9447864 6.69346381,11.8322754 6.8462645,11.6498094 L14.6881462,2.7959348 C14.8385779,2.61521767 14.9490382,2.471983 14.9259404,2.23938256 C14.9022504,2.00678212 14.7891305,1.79691706 14.6055328,1.64826264 L12.94602,0.317089217 C12.4606055,-0.117657076 12.0855512,0.00861720053 11.7325845,0.399516561 L5.90047824,7.28480303 L2.74965413,4.48705619 C2.60392877,4.36463057 2.43542927,4.28696801 2.21265595,4.30210076 C1.98988262,4.31723351 1.76095665,4.50539051 1.5668067,4.72804947 L0.410733293,6.05602894 Z" transform="rotate(4 2.756 9.153)"/>
</svg>
