<svg xmlns="http://www.w3.org/2000/svg" width="21" height="21" viewBox="0 0 21 21">
  <g fill="#2770A0" transform="translate(.494 .078)">
    <path d="M1.01364522,20.0000009 C0.619376047,20.0000009 0.263896514,19.762141 0.113006285,19.3971764 C-0.0378839444,19.0322119 0.0455392979,18.6121106 0.324366472,18.3328125 L18.3360624,0.2859375 C18.7167405,-0.0954841554 19.3339417,-0.0954841554 19.7146199,0.2859375 C20.095298,0.667359155 20.095298,1.28576584 19.7146199,1.6671875 L1.70292398,19.7140625 C1.52027328,19.8974479 1.27221897,20.0003497 1.01364522,20.0000009 L1.01364522,20.0000009 Z"/>
    <path d="M19.0253411,20.0000009 C18.7667674,20.0003497 18.5187131,19.8974479 18.3360624,19.7140625 L0.324366472,1.6671875 C-0.0563116716,1.28576584 -0.0563116716,0.667359155 0.324366472,0.2859375 C0.705044615,-0.0954841554 1.32224583,-0.0954841554 1.70292398,0.2859375 L19.7146199,18.3328125 C19.9934471,18.6121106 20.0768703,19.0322119 19.9259801,19.3971764 C19.7750898,19.762141 19.4196103,20.0000009 19.0253411,20.0000009 L19.0253411,20.0000009 Z"/>
  </g>
</svg>
