<svg xmlns="http://www.w3.org/2000/svg" width="17" height="19" viewBox="0 0 17 19">
  <path fill="#2770A0" d="M12.0993761,0 L1.73573975,0 C0.78573975,0 0.00846702317,0.777272727 0.00846702317,1.72727273 L0.00846702317,13.8181818 L1.73573975,13.8181818 L1.73573975,1.72727273 L12.0993761,1.72727273 L12.0993761,0 Z M14.6902852,3.45454545 L5.1902852,3.45454545 C4.2402852,3.45454545 3.46301248,4.23181818 3.46301248,5.18181818 L3.46301248,17.2727273 C3.46301248,18.2227273 4.2402852,19 5.1902852,19 L14.6902852,19 C15.6402852,19 16.4175579,18.2227273 16.4175579,17.2727273 L16.4175579,5.18181818 C16.4175579,4.23181818 15.6402852,3.45454545 14.6902852,3.45454545 Z M14.6902852,17.2727273 L5.1902852,17.2727273 L5.1902852,5.18181818 L14.6902852,5.18181818 L14.6902852,17.2727273 Z"/>
</svg>
