<svg xmlns="http://www.w3.org/2000/svg" width="21" height="20" viewBox="0 0 21 20">
  <g fill="#2770A0" transform="translate(.444 -.18)">
    <path d="M10.014161,0.563772905 L5.26315789,5.32326228 L6.19070097,6.25384901 L8.3573283,4.08011207 C8.51114768,3.92730045 8.82740919,3.61958448 9.30611282,3.15696418 L9.30611282,17.4831993 L10.7222091,17.4831993 L10.7421704,3.15696418 C10.7468951,3.16216938 11.0470623,3.47225325 11.6426717,4.08721579 L13.809299,6.26095273 L14.7368421,5.330366 L10.014161,0.563772905 Z" transform="rotate(180 10 9.023)"/>
    <polygon points="16.667 13 16.667 14 19.016 14 19.016 19 1.103 19 1.103 14 3.333 14 3.333 13 0 13 0 20 20 20 20 13"/>
  </g>
</svg>
