<svg xmlns="http://www.w3.org/2000/svg" viewBox="0 0 76.78 99.5"><defs><style>.cls-1{fill:#2770a0;}.cls-2,.cls-3{fill:none;stroke:#2770a0;stroke-miterlimit:10;}.cls-2{stroke-width:0.5px;}.cls-3{stroke-width:3px;}</style></defs><g id="Final_drawing" data-name="Final drawing"><path class="cls-1" d="M47.07,53.74l-7.62,8.69c-.18.21-.33.16-.33-.12V35.43a.78.78,0,0,0-.78-.78h0a.78.78,0,0,0-.78.78V62.32c0,.28-.15.33-.33.13l-7.52-8.71a.77.77,0,0,0-1.1,0h0a.78.78,0,0,0,0,1.1L38,65.41a.42.42,0,0,0,.66,0l9.52-10.57a.78.78,0,0,0,0-1.1h0A.77.77,0,0,0,47.07,53.74Z"/><path class="cls-2" d="M47.07,53.74l-7.62,8.69c-.18.21-.33.16-.33-.12V35.43a.78.78,0,0,0-.78-.78h0a.78.78,0,0,0-.78.78V62.32c0,.28-.15.33-.33.13l-7.52-8.71a.77.77,0,0,0-1.1,0h0a.78.78,0,0,0,0,1.1L38,65.41a.42.42,0,0,0,.66,0l9.52-10.57a.78.78,0,0,0,0-1.1h0A.77.77,0,0,0,47.07,53.74Z"/><path class="cls-1" d="M51.74,78.87H25a7,7,0,0,1-7-7v-5.5a1,1,0,0,1,1-1h0a1,1,0,0,1,1,1v5.5a5,5,0,0,0,5,5h26.7a5,5,0,0,0,5-5v-5.5a1,1,0,0,1,1-1h0a1,1,0,0,1,1,1v5.5A7,7,0,0,1,51.74,78.87Z"/><path class="cls-1" d="M47.76,3a3,3,0,0,1,2,.72L73.25,26.21a1.83,1.83,0,0,1,.66,1.37v66.8a2.47,2.47,0,0,1-2.65,2.12H5.78a2.46,2.46,0,0,1-2.65-2.12V5.12A2.46,2.46,0,0,1,5.78,3h42m0-3h-42A5.4,5.4,0,0,0,.13,5.12V94.38A5.4,5.4,0,0,0,5.78,99.5H71.26a5.4,5.4,0,0,0,5.65-5.12V27.58A4.9,4.9,0,0,0,75.28,24L51.76,1.51a5.93,5.93,0,0,0-4-1.51Z"/><polyline class="cls-3" points="75.59 26.63 49.26 26.68 49.26 1.85"/></g></svg>