<svg xmlns="http://www.w3.org/2000/svg" width="21" height="21" viewBox="0 0 21 21">
  <path fill="#2770A0" d="M0.523031097,15.492737 L0.500048949,19.6120576 C0.49499209,20.0956461 0.882384909,20.4924704 1.36693731,20.5 L5.46722073,20.4771149 C5.69795441,20.4805861 5.92004806,20.3896155 6.0818046,20.2253786 L20.2447523,6.09153196 C20.5850826,5.74603882 20.5850826,5.19207487 20.2447523,4.84658173 L16.1857469,0.754723275 C15.8395424,0.415092242 15.2844378,0.415092242 14.9382333,0.754723275 C13.1311733,2.58553243 2.83001383,12.8380637 0.77528567,14.8885699 C0.61841845,15.0532158 0.528506976,15.2701913 0.523031097,15.497314 M15.571163,2.60384052 L18.4285193,5.4599028 L16.8186765,7.06643783 L13.9659066,4.2195296 L15.571163,2.60384052 Z M2.27046732,15.8772069 L12.7183931,5.4599028 L15.571163,8.31138806 L5.13241011,18.70123 L2.25670798,18.70123 L2.27046732,15.8772069 Z"/>
</svg>
