<svg xmlns="http://www.w3.org/2000/svg" width="21" height="20" viewBox="0 0 21 20">
  <path fill="#ED1F24" fill-rule="evenodd" d="M10.472548,0 C15.9953955,0 20.472548,4.4771525 20.472548,10 C20.472548,15.5228475 15.9953955,20 10.472548,20 C4.94970051,20 0.47254801,15.5228475 0.47254801,10 C0.47254801,4.4771525 4.94970051,0 10.472548,0 Z M6.49438222,4.80367464 L5.33483033,5.91438854 C4.90769207,6.32372085 4.90252615,6.99138465 5.32370372,7.40663687 L7.78502502,9.83264503 L5.28816038,12.2249354 C4.86102212,12.6337529 4.85585619,13.3019315 5.27703377,13.716669 L6.42082296,14.8438557 C6.84186807,15.2588505 7.52933372,15.2634835 7.95633952,14.854666 L10.4536015,12.462633 L12.9146579,14.8884267 C13.335968,15.3034215 14.0234336,15.3080545 14.450307,14.8989795 L15.6099913,13.7884801 C16.0371296,13.3794052 16.042163,12.711484 15.620853,12.2962318 L13.1596642,9.87048103 L15.6571911,7.47874834 C16.0840203,7.06967342 16.0893187,6.40175223 15.6677437,5.98650001 L14.5245285,4.85927039 C14.1032626,4.44457584 13.415797,4.43964257 12.9889236,4.8484601 L10.4912642,7.24049308 L8.03016371,4.81448492 C7.60885367,4.39974747 6.92134387,4.39485711 6.49438222,4.80367464 Z"/>
</svg>
