<svg xmlns="http://www.w3.org/2000/svg" width="13" height="13" viewBox="0 0 13 13">
  <g fill="#737373" transform="translate(.96 .82)">
    <path d="M4.6465,6.6465 L1,10.293 L1,9 C1,8.724 0.776,8.5 0.5,8.5 C0.224,8.5 -4.4408921e-16,8.724 -4.4408921e-16,9 L-4.4408921e-16,11.5 C-4.4408921e-16,11.776 0.224,12 0.5,12 L3,12 C3.276,12 3.5,11.776 3.5,11.5 C3.5,11.224 3.276,11 3,11 L1.707,11 L5.3535,7.3535 C5.54875,7.15825 5.54875,6.84175 5.3535,6.6465 C5.1585,6.45125 4.8415,6.45125 4.6465,6.6465 L4.6465,6.6465 Z" transform="rotate(180 2.75 9.25)"/>
    <path d="M11.5,-8.8817842e-16 L9,-8.8817842e-16 C8.724,-8.8817842e-16 8.5,0.224 8.5,0.5 C8.5,0.776 8.724,1 9,1 L10.293,1 L6.6465,4.6465 C6.45125,4.84175 6.45125,5.15825 6.6465,5.3535 C6.74425,5.45125 6.872,5.5 7,5.5 C7.128,5.5 7.25575,5.45125 7.3535,5.3535 L11,1.707 L11,3 C11,3.276 11.224,3.5 11.5,3.5 C11.776,3.5 12,3.276 12,3 L12,0.5 C12,0.224 11.776,-8.8817842e-16 11.5,-8.8817842e-16 Z" transform="rotate(180 9.25 2.75)"/>
  </g>
</svg>
