<svg xmlns="http://www.w3.org/2000/svg" width="20" height="17" viewBox="0 0 20 17">
  <g fill="#2770A0">
    <path d="M10.5118306,7.83200163 L9.48805261,7.83200163 C8.96339172,7.83200163 8.53658394,7.39925484 8.53658394,6.86733281 C8.53658394,6.3353713 8.96343066,5.90254555 9.48805261,5.90254555 L11.5355696,5.90254555 C11.8581383,5.90254555 12.119651,5.63739389 12.119651,5.31033665 C12.119651,4.98327942 11.8581383,4.71812775 11.5355696,4.71812775 L10.584023,4.71812775 L10.584023,3.75330101 C10.584023,3.4262043 10.3225103,3.16105263 9.99994159,3.16105263 C9.67737288,3.16105263 9.41586015,3.4262043 9.41586015,3.75326153 L9.41586015,4.71990438 C8.28044476,4.7587138 7.36842105,5.70672181 7.36842105,6.86725385 C7.36842105,8.05226386 8.31930564,9.01634046 9.48805261,9.01634046 L10.5118306,9.01634046 C11.0365304,9.01634046 11.4634161,9.44916621 11.4634161,9.98120668 C11.4634161,10.5131682 11.0365304,10.9459545 10.5118306,10.9459545 L8.46435254,10.9459545 C8.14178382,10.9459545 7.88027109,11.2111061 7.88027109,11.5381634 C7.88027109,11.8652206 8.14178382,12.1303723 8.46435254,12.1303723 L9.41586015,12.1303723 L9.41586015,13.0951595 C9.41586015,13.4222168 9.67737288,13.6873684 9.99994159,13.6873684 C10.3225103,13.6873684 10.584023,13.4222168 10.584023,13.0951595 L10.584023,12.1285562 C11.7194774,12.0897862 12.6315789,11.1417782 12.6315789,9.98124617 C12.6315789,8.79611772 11.6806165,7.83200163 10.5118306,7.83200163 Z"/>
    <path d="M17.5383063 11.397529C17.2376576 11.2745397 16.8873366 11.4030149 16.7559464 11.6843927 15.6065099 14.1458455 13.0098008 15.7363285 10.1403292 15.7363285 6.59517056 15.7363285 3.59062495 13.2753575 3.02145229 10.0846058L4.59742164 11.0700025C4.87026327 11.2406232 5.23924116 11.1719375 5.4215713 10.916581 5.60390144 10.6612615 5.53046236 10.3159798 5.25762074 10.1453591L2.65980246 8.52103375C2.52876876 8.43911505 2.36834359 8.40935002 2.21378087 8.43800303 2.05921815 8.46676724 1.92323306 8.55183666 1.83565279 8.67445523L.100169325 11.1054388C-.0821212037 11.3607953-.00868212507 11.706077.2641595 11.8766607.365564054 11.9400828.480238343 11.9704038.593684687 11.9704038.785442281 11.9704038.973753705 11.8836293 1.08826955 11.7232392L1.90790354 10.5751913C2.24142945 12.099435 3.05195288 13.4976129 4.26516329 14.6075927 5.84461842 16.0525865 7.93109632 16.8484211 10.1403688 16.8484211 13.4821242 16.8484211 16.5063565 14.996206 17.844857 12.1296819 17.9762868 11.8482671 17.8390342 11.5204811 17.5383063 11.397529zM19.735907 4.97185424C19.4629878 4.80126993 19.0940518 4.86995588 18.9117624 5.12527633L18.0920146 6.27329167C17.7584908 4.74900486 16.9479724 3.35082144 15.7347694 2.24083728 14.1553241.795837698 12.0688194-8.8817842e-16 9.8595606-8.8817842e-16 6.51786549-8.8817842e-16 3.49365181 1.85225942 2.15511997 4.71875783 2.02373059 5.00013669 2.16098239 5.32792396 2.4616688 5.45087662 2.76235521 5.57382928 3.11263447 5.44539064 3.24406347 5.16401179 4.39345322 2.70258624 6.99018596 1.11202287 9.85960021 1.11202287 13.4046973 1.11202287 16.4092244 3.57304067 16.9784728 6.76376789L15.4025131 5.77844149C15.1296336 5.60778305 14.7606976 5.67654313 14.5783686 5.93186358 14.3960792 6.1872211 14.4694782 6.5325042 14.7423577 6.7030885L17.3400808 8.3273091C17.4414847 8.39073147 17.5561583 8.42105263 17.6696039 8.42105263 17.8613999 8.42105263 18.049631 8.33431485 18.1641461 8.17388702L19.8998169 5.74311623C20.0821063 5.48772165 20.0087073 5.14243855 19.735907 4.97185424z"/>
  </g>
</svg>
