<svg xmlns="http://www.w3.org/2000/svg" width="30" height="25" viewBox="0 0 30 25">
  <g transform="translate(.72)">
    <path d="M15.3519635,11.4382174 L13.8567908,11.4382174 C13.0905518,11.4382174 12.467222,10.806214 12.467222,10.0293704 C12.467222,9.25246923 13.0906087,8.6203505 13.8567908,8.6203505 L16.8470793,8.6203505 C17.3181736,8.6203505 17.7000989,8.23311075 17.7000989,7.75546123 C17.7000989,7.27781172 17.3181736,6.89057197 16.8470793,6.89057197 L15.4573967,6.89057197 L15.4573967,5.48149438 C15.4573967,5.00378721 15.0754714,4.61654745 14.6043772,4.61654745 C14.1332829,4.61654745 13.7513576,5.00378721 13.7513576,5.48143672 L13.7513576,6.89316664 C12.0931445,6.94984571 10.7611829,8.33436045 10.7611829,10.0292551 C10.7611829,11.7598985 12.1498987,13.1678806 13.8567908,13.1678806 L15.3519635,13.1678806 C16.1182594,13.1678806 16.741703,13.7999993 16.741703,14.5770158 C16.741703,15.353917 16.1182594,15.9859781 15.3519635,15.9859781 L12.3617319,15.9859781 C11.8906376,15.9859781 11.5087123,16.3732179 11.5087123,16.8508674 C11.5087123,17.3285169 11.8906376,17.7157567 12.3617319,17.7157567 L13.7513576,17.7157567 L13.7513576,19.1247766 C13.7513576,19.6024261 14.1332829,19.9896658 14.6043772,19.9896658 C15.0754714,19.9896658 15.4573967,19.6024261 15.4573967,19.1247766 L15.4573967,17.7131043 C17.1156667,17.6564829 18.4477421,16.2719682 18.4477421,14.5770735 C18.4477421,12.8462571 17.0589125,11.4382174 15.3519635,11.4382174 Z"/>
    <path d="M25.6137536 16.6454784C25.1746724 16.4658592 24.6630473 16.6534904 24.471159 17.0644274 22.7924689 20.659247 19.0001147 22.9820618 14.8094057 22.9820618 9.63189209 22.9820618 5.24391474 19.387946 4.41266865 14.7280247L6.71428718 16.1671436C7.11275771 16.4163259 7.6516301 16.3160142 7.91791346 15.9430797 8.18419683 15.5701994 8.07694301 15.065934 7.67847248 14.8167516L3.88449851 12.4445118C3.69313085 12.3248739 3.45883851 12.2814037 3.23310796 12.3232499 3.00737741 12.3652585 2.8087785 12.4894978 2.68087224 12.6685756L.146291915 16.2188964C-.119933604 16.5918308-.012679777 17.0960963.385790751 17.3452245.53388665 17.4378491.701362286 17.4821313.867044573 17.4821313 1.14709623 17.4821313 1.42211494 17.3554018 1.58935918 17.1211607L2.78639056 15.4444985C3.27348723 17.6705745 4.45721312 19.7125381 6.22904172 21.3336039 8.53575104 23.4439397 11.5829399 24.6062133 14.8094636 24.6062133 19.6899176 24.6062133 24.1066464 21.9011528 26.0614544 17.7147484 26.2534006 17.3037572 26.0529505 16.8250434 25.6137536 16.6454784zM28.8232313 7.26112586C28.4246475 7.01199665 27.8858363 7.11230878 27.6196124 7.48519058L26.4224149 9.16180527C25.9353212 6.93566632 24.7516026 4.89369459 22.979785 3.2726224 20.6730899 1.16227818 17.6258621-1.29713684e-15 14.3993583-1.29713684e-15 9.51899219-1.29713684e-15 5.10229067 2.70512532 3.14743688 6.89149217 2.95554974 7.30243086 3.15599862 7.78114655 3.59513496 7.96071231 4.0342713 8.14027806 4.54583534 7.95270033 4.73778032 7.54176164 6.41640226 3.94698193 10.2087909 1.62404962 14.3994161 1.62404962 19.5768399 1.62404962 23.9647902 5.21823384 24.7961468 9.87811943L22.4945425 8.43910319C22.0960166 8.18986571 21.5572054 8.29028611 21.2909237 8.6631679 21.0246998 9.03610383 21.1318951 9.54037124 21.530421 9.78950045L25.3242559 12.1615873C25.4723509 12.2542123 25.6398255 12.2984947 25.8055067 12.2984947 26.0856145 12.2984947 26.3605158 12.1718188 26.527759 11.9375226L29.0626129 8.38751255C29.3288368 8.01452248 29.2216415 7.51025508 28.8232313 7.26112586z"/>
  </g>
</svg>
