<svg xmlns="http://www.w3.org/2000/svg" width="21" height="21" viewBox="0 0 21 21">
  <g fill="#2770A0" transform="translate(.7 .32)">
    <path d="M10.0755589,4.70431197 C11.986945,4.70431197 13.8687299,5.57055414 13.8687299,7.64253051 C13.8687299,9.55325684 11.643713,10.2880716 11.1658665,10.9784992 C10.8071292,11.4920719 10.9269433,12.2137092 9.94129675,12.2137092 C9.29923456,12.2137092 8.98560374,11.6997897 8.98560374,11.2295638 C8.98560374,9.47974069 11.5982542,9.08372446 11.5982542,7.64287729 C11.5982542,6.84980449 11.0619102,6.37957856 10.1654194,6.37957856 C8.25403342,6.37957856 9.00040429,8.31874038 7.55276901,8.31874038 C7.03016844,8.31874038 6.5815706,8.01011126 6.5815706,7.42267562 C6.58121826,5.98148167 8.25332863,4.70431197 10.0755589,4.70431197 Z M10.0012038,13.4633733 C10.6721623,13.4633733 11.2257735,14.0064218 11.2257735,14.6687607 C11.2257735,15.3310996 10.6732195,15.8741481 10.0012038,15.8741481 C9.32918806,15.8741481 8.7762816,15.3317931 8.7762816,14.6687607 C8.7762816,14.0067686 9.32918806,13.4633733 10.0012038,13.4633733 Z"/>
    <path d="M9.9858156,0.5 C4.47080193,0.5 0,4.97080193 0,10.4858156 C0,16.0008293 4.47080193,20.4716312 9.9858156,20.4716312 C15.5008293,20.4716312 19.9716312,16.0008293 19.9716312,10.4858156 C19.9651282,4.97349782 15.4981334,0.506503036 9.9858156,0.5 Z M9.9858156,18.6560284 C5.47353169,18.6560284 1.81560284,14.9980995 1.81560284,10.4858156 C1.81560284,5.97353169 5.47353169,2.31560284 9.9858156,2.31560284 C14.4980995,2.31560284 18.1560284,5.97353169 18.1560284,10.4858156 C18.1505262,14.9958185 14.4958185,18.6505262 9.9858156,18.6560284 L9.9858156,18.6560284 Z"/>
  </g>
</svg>
