<svg xmlns="http://www.w3.org/2000/svg" width="16" height="16" viewBox="0 0 16 16">
  <g fill="#2770A0">
    <path d="M10.570495,8.76779098 C10.5940779,8.51685495 10.5906268,8.2633154 10.5599598,8.0131362 C10.5229658,7.71237019 10.446798,7.4208981 10.334181,7.14447189 C10.3201341,7.11005105 10.3056332,7.07581186 10.2904662,7.04187541 C10.1220554,6.66472966 9.88428831,6.31788756 9.58349202,6.01715182 C9.57916293,6.01282273 9.57474302,6.00840282 9.57035338,6.00407372 C9.37033717,5.80620692 9.15161201,5.63791721 8.91992984,5.49875049 L7.84604229,6.56116443 C7.74713917,6.65903826 7.68259632,6.77746772 7.65462372,6.90891473 C7.88975705,6.98529446 8.10957205,7.11371413 8.29272599,7.29493058 L8.29893203,7.30113662 C8.60357304,7.60571708 8.77074264,8.01156199 8.76962252,8.44389611 C8.76847213,8.87616968 8.59909258,9.28113666 8.29272599,9.58429427 L4.62940502,13.208502 C3.99623731,13.8349188 2.92637612,13.8349188 2.29320841,13.208502 L2.28703264,13.2023263 C1.98239164,12.8977458 1.81522204,12.4919009 1.81634216,12.0595668 C1.81752282,11.6272629 1.9868721,11.2223262 2.29320841,10.9192292 L4.38821702,8.84659258 C4.13779563,8.29280167 4.00577343,7.68691028 4.0058037,7.06037244 C4.0058037,6.92284048 4.01237302,6.78636809 4.02493647,6.65116719 L1.01564157,9.62831176 C0.360707303,10.2762832 -8.8817842e-16,11.1412541 -8.8817842e-16,12.0638656 C-8.8817842e-16,12.9803316 0.355803016,13.8398231 1.00250292,14.4862808 C1.00683202,14.4906099 1.0112822,14.4950601 1.01564157,14.4993892 C2.36419948,15.8335369 4.55844422,15.8335369 5.90703241,14.4993892 L9.57038365,10.8751511 C10.1421267,10.3095233 10.489544,9.57851205 10.568618,8.78813469 L10.570495,8.76779098 Z"/>
    <path d="M5.92961635,9.49592628 C6.12963256,9.69379308 6.34835772,9.86208279 6.58003988,10.0012495 L7.65392743,8.93883557 C7.75283056,8.84099201 7.81740368,8.72253228 7.84534601,8.59108527 C7.61021268,8.51473581 7.3903674,8.38628587 7.20721346,8.20503915 L7.20100742,8.19883311 C6.89636641,7.89425265 6.72922709,7.48840774 6.73034721,7.05610389 C6.73149759,6.62383032 6.90087715,6.2188028 7.20724374,5.91570573 L10.870595,2.29149797 C11.5037627,1.66511149 12.5735936,1.66511149 13.206731,2.29152824 L13.2114537,2.29622061 C13.5175478,2.60225419 13.6847174,3.00809911 13.6835973,3.44043322 C13.6824166,3.87273706 13.5130674,4.27767377 13.2067008,4.58080111 L11.1116922,6.65343769 C11.3621136,7.20725887 11.4941358,7.81315027 11.4941358,8.43962756 C11.4941358,8.57715952 11.4875664,8.71363191 11.4750333,8.84880254 L14.4843282,5.87165797 C15.1392624,5.22371685 15.4999395,4.35877615 15.4999395,3.4361344 C15.4999395,2.51969869 15.1440759,1.66020721 14.4974668,1.01371921 C14.4931074,1.00935985 14.4887178,1.00497021 14.4842979,1.00061084 C13.13574,-0.333536946 10.941465,-0.333536946 9.59293732,1.00061084 L5.92964662,4.62487915 C5.27471235,5.27282027 4.91400505,6.13779123 4.91400505,7.06040271 C4.91400505,7.97689897 5.26980807,8.83636018 5.91650798,9.48284818 C5.92083707,9.48717727 5.92525698,9.49159718 5.92961635,9.49592628 L5.92961635,9.49592628 Z"/>
  </g>
</svg>
