<svg xmlns="http://www.w3.org/2000/svg" width="37" height="36" viewBox="0 0 37 36">
  <path fill="#2770A0" fill-rule="evenodd" d="M18.3766393,0 C28.3177648,0 36.3766393,8.0588745 36.3766393,18 C36.3766393,27.9411255 28.3177648,36 18.3766393,36 C8.43551385,36 0.376639342,27.9411255 0.376639342,18 C0.376639342,8.0588745 8.43551385,0 18.3766393,0 Z M28.713306,12.7938192 C28.1159727,12.7938192 27.586306,12.9081526 27.124306,13.1368192 C26.662306,13.3654859 26.298306,13.6758192 26.032306,14.0678192 C25.766306,14.4598192 25.633306,14.9031526 25.633306,15.3978192 C25.633306,15.8364859 25.724306,16.2144859 25.906306,16.5318192 C26.088306,16.8491526 26.3216393,17.1104859 26.606306,17.3158192 C26.819806,17.4698192 27.0372435,17.6028192 27.2586185,17.7148192 L27.481306,17.8198192 L28.727306,18.3658192 C29.1379727,18.5431526 29.476306,18.7158192 29.742306,18.8838192 C30.008306,19.0518192 30.141306,19.3178192 30.141306,19.6818192 C30.141306,20.0271526 30.0059727,20.3071526 29.735306,20.5218192 C29.4646393,20.7364859 29.077306,20.8438192 28.573306,20.8438192 C28.1346393,20.8438192 27.698306,20.7574859 27.264306,20.5848192 C26.9026393,20.4409303 26.5782412,20.24681 26.2911116,20.0024581 L26.123306,19.8498192 L25.227306,20.9418192 C25.6659727,21.3804859 26.1699727,21.7141526 26.739306,21.9428192 C27.3086393,22.1714859 27.9059727,22.2858192 28.531306,22.2858192 C29.2219727,22.2858192 29.8146393,22.1621526 30.309306,21.9148192 C30.8039727,21.6674859 31.1819727,21.3361526 31.443306,20.9208192 C31.7046393,20.5054859 31.835306,20.0504859 31.835306,19.5558192 C31.835306,18.8931526 31.6649727,18.3728192 31.324306,17.9948192 C31.032306,17.6708192 30.6631632,17.3999621 30.2168774,17.1822478 L29.987306,17.0778192 L28.755306,16.5738192 C28.503306,16.4618192 28.2676393,16.3544859 28.048306,16.2518192 C27.8289727,16.1491526 27.6516393,16.0231526 27.516306,15.8738192 C27.3809727,15.7244859 27.313306,15.5331526 27.313306,15.2998192 C27.313306,14.9731526 27.439306,14.7164859 27.691306,14.5298192 C27.943306,14.3431526 28.2839727,14.2498192 28.713306,14.2498192 C29.0679727,14.2498192 29.4086393,14.3174859 29.735306,14.4528192 C29.9966393,14.5610859 30.246026,14.7036992 30.483466,14.8806592 L30.659306,15.0198192 L31.555306,13.9278192 C31.2006393,13.5824859 30.7759727,13.3071526 30.281306,13.1018192 C29.7866393,12.8964859 29.2639727,12.7938192 28.713306,12.7938192 Z M7.12530601,12.9618192 L5.45930601,12.9618192 L5.45930601,22.1178192 L7.12530601,22.1178192 L7.12530601,12.9618192 Z M12.6459727,12.9618192 L9.55197268,12.9618192 L9.55197268,22.1178192 L11.2179727,22.1178192 L11.2179727,18.5618192 L12.5759727,18.5618192 L14.5359727,22.1178192 L16.3979727,22.1178192 L14.2279727,18.3098192 C14.7786393,18.1231526 15.217306,17.8128192 15.5439727,17.3788192 C15.8706393,16.9448192 16.0339727,16.3824859 16.0339727,15.6918192 C16.0339727,15.0011526 15.8846393,14.4574859 15.5859727,14.0608192 C15.287306,13.6641526 14.8836393,13.3818192 14.3749727,13.2138192 C13.9510838,13.0738192 13.4802042,12.9921526 12.9623338,12.9688192 L12.6459727,12.9618192 Z M21.6386393,12.9618192 L19.6786393,12.9618192 L16.7106393,22.1178192 L18.4046393,22.1178192 L19.1046393,19.6678192 L22.1426393,19.6678192 L22.8426393,22.1178192 L24.6066393,22.1178192 L21.6386393,12.9618192 Z M20.6446393,14.2638192 C20.775306,14.7584859 20.908306,15.2624859 21.0436393,15.7758192 C21.1338616,16.1180414 21.2271949,16.4540414 21.3236393,16.7838192 L21.4706393,17.2738192 L21.7786393,18.3658192 L19.4826393,18.3658192 L19.7906393,17.2738192 C19.9399727,16.7884859 20.0799727,16.2914859 20.2106393,15.7828192 L20.4031393,15.0215692 L20.4031393,15.0215692 L20.5886393,14.2638192 L20.6446393,14.2638192 Z M12.4779727,14.2918192 C13.103306,14.2918192 13.579306,14.3944859 13.9059727,14.5998192 C14.2326393,14.8051526 14.3959727,15.1691526 14.3959727,15.6918192 C14.3959727,16.2051526 14.2326393,16.5901526 13.9059727,16.8468192 C13.579306,17.1034859 13.103306,17.2318192 12.4779727,17.2318192 L11.2179727,17.2318192 L11.2179727,14.2918192 L12.4779727,14.2918192 Z"/>
</svg>
