<svg xmlns="http://www.w3.org/2000/svg" width="37" height="36" viewBox="0 0 37 36">
  <path fill="#2770A0" fill-rule="evenodd" d="M18.2514194,0 C28.1925449,0 36.2514194,8.0588745 36.2514194,18 C36.2514194,27.9411255 28.1925449,36 18.2514194,36 C8.31029394,36 0.251419436,27.9411255 0.251419436,18 C0.251419436,8.0588745 8.31029394,0 18.2514194,0 Z M18.1816215,8.29536908 C15.4047885,8.29536908 13.1459139,10.603922 13.1459139,13.4418247 C13.1459139,15.224704 14.0379535,16.7980491 15.3868038,17.720735 C11.3690284,18.9485323 8.37997625,22.7385293 8.29364983,27.2122697 C8.2900529,27.4107759 8.36558851,27.6019299 8.49867507,27.7416194 C8.63176163,27.8813089 8.82239914,27.9621818 9.01303664,27.9621818 L27.3466095,27.9621818 C27.5408439,27.9621818 27.7242876,27.8813089 27.8609711,27.7416194 C27.9976546,27.6019299 28.0695932,27.4107759 28.0659963,27.2122697 C27.9796699,22.7385293 24.9906177,18.9448563 20.9728424,17.720735 C22.3252896,16.7980491 23.2173292,15.224704 23.2173292,13.4418247 C23.2173292,12.7336446 23.0766647,12.058428 22.8223886,11.4438232 C22.0577,9.59551138 20.265514,8.29536908 18.1816215,8.29536908 Z M18.1816215,18.7720824 C22.5051363,18.7720824 26.1308458,22.1724192 26.5840595,26.4917659 L9.77918359,26.4917659 C10.2323973,22.1724192 13.8581068,18.7720824 18.1816215,18.7720824 Z M18.1816215,9.76578498 C20.1635322,9.76578498 21.7785556,11.4163268 21.7785556,13.4418247 C21.7785556,15.4673227 20.1635322,17.1178645 18.1816215,17.1178645 C16.1997109,17.1178645 14.5846875,15.4673227 14.5846875,13.4418247 C14.5846875,11.4163268 16.1997109,9.76578498 18.1816215,9.76578498 Z"/>
</svg>
