<svg xmlns="http://www.w3.org/2000/svg" viewBox="0 0 104.27 113.76"><defs><style>.cls-1{fill:#231f20;}.cls-2{fill:#a7a9ac;}.cls-3{fill:#5da7e5;}</style></defs><g id="Layer_2" data-name="Layer 2"><g id="IRAS-logo_high_res_-1_Image" data-name="IRAS-logo (high res)-1 Image"><rect class="cls-1" x="24.08" y="83.21" width="0.78" height="7"/><polygon class="cls-1" points="26.7 82.91 32.16 88.63 32.16 83.21 32.95 83.21 32.95 90.52 27.48 84.81 27.48 90.21 26.7 90.21 26.7 82.91"/><polygon class="cls-1" points="35.56 89.48 37.49 89.48 37.49 90.21 34.78 90.21 34.78 83.2 35.56 83.2 35.56 89.48"/><path class="cls-1" d="M41.2,84.69,40,87.5h2.37Zm-1.51,3.53-.85,2H38l3.23-7.34,3.15,7.34H43.5l-.82-2Z"/><polygon class="cls-1" points="45.55 82.91 51.01 88.63 51.01 83.21 51.79 83.21 51.79 90.52 46.33 84.81 46.33 90.21 45.55 90.21 45.55 82.91"/><path class="cls-1" d="M55,89.48a2.94,2.94,0,0,0,2.21-.72,2.85,2.85,0,0,0,0-4.15A3,3,0,0,0,55,83.93h-.56v5.55Zm-1.34-6.27h1.31a3.82,3.82,0,0,1,2.74.84,3.41,3.41,0,0,1,1.16,2.66,3.37,3.37,0,0,1-1.15,2.62,3.71,3.71,0,0,1-2.76.88h-1.3Z"/><path class="cls-1" d="M64.31,86.45h.24c.89,0,1.78-.17,1.78-1.26s-.85-1.26-1.78-1.26h-.24Zm0,3.76h-.78v-7h1c1.32,0,2.56.35,2.56,1.93a1.83,1.83,0,0,1-1.76,1.93l2.23,3.14h-1l-2.12-3.08h-.2Z"/><polygon class="cls-1" points="68.94 83.21 72.57 83.21 72.57 83.93 69.72 83.93 69.72 86.01 72.49 86.01 72.49 86.73 69.72 86.73 69.72 89.48 72.57 89.48 72.57 90.21 68.94 90.21 68.94 83.21"/><polygon class="cls-1" points="76.47 88.55 78.46 83.21 79.31 83.21 76.47 90.63 73.63 83.21 74.47 83.21 76.47 88.55"/><polygon class="cls-1" points="80.45 83.21 84.08 83.21 84.08 83.93 81.23 83.93 81.23 86.01 83.99 86.01 83.99 86.73 81.23 86.73 81.23 89.48 84.08 89.48 84.08 90.21 80.45 90.21 80.45 83.21"/><polygon class="cls-1" points="85.83 82.91 91.29 88.63 91.29 83.21 92.07 83.21 92.07 90.52 86.61 84.81 86.61 90.21 85.83 90.21 85.83 82.91"/><path class="cls-1" d="M94.67,87.38a2.6,2.6,0,0,0,.3,1.55,1.8,1.8,0,0,0,1.41.67A1.86,1.86,0,0,0,97.76,89a2.4,2.4,0,0,0,.34-1.6V83.2h.78v4.39a2.44,2.44,0,0,1-.61,1.94,2.58,2.58,0,0,1-1.89.8,2.64,2.64,0,0,1-1.81-.71,2.49,2.49,0,0,1-.68-2V83.2h.78Z"/><polygon class="cls-1" points="100.64 83.2 100.64 90.21 104.27 90.21 104.27 89.48 101.42 89.48 101.42 86.73 104.19 86.73 104.19 86.01 101.42 86.01 101.42 83.93 104.27 83.93 104.27 83.2 100.64 83.2"/><path class="cls-1" d="M26.63,96.31l-1.2,2.8H27.8Zm-1.52,3.53-.84,2h-.86l3.24-7.33,3.14,7.33h-.86l-.83-2Z"/><path class="cls-1" d="M31.88,99a2.55,2.55,0,0,0,.31,1.56,1.77,1.77,0,0,0,1.4.67A1.84,1.84,0,0,0,35,100.6,2.43,2.43,0,0,0,35.31,99V94.82h.78v4.39a2.45,2.45,0,0,1-.61,1.94,2.58,2.58,0,0,1-1.89.8,2.63,2.63,0,0,1-1.8-.72,2.44,2.44,0,0,1-.69-2V94.82h.78Z"/><polygon class="cls-1" points="39.9 101.83 39.12 101.83 39.12 95.55 37.43 95.55 37.43 94.82 41.61 94.82 41.61 95.55 39.9 95.55 39.9 101.83"/><polygon class="cls-1" points="47.37 97.66 47.37 94.82 48.15 94.82 48.15 101.83 47.37 101.83 47.37 98.39 43.78 98.39 43.78 101.83 43 101.83 43 94.82 43.78 94.82 43.78 97.66 47.37 97.66"/><path class="cls-1" d="M50.58,98.32a2.88,2.88,0,1,0,2.87-2.89,2.9,2.9,0,0,0-2.87,2.89m6.53,0a3.65,3.65,0,1,1-3.66-3.63,3.64,3.64,0,0,1,3.66,3.63"/><path class="cls-1" d="M59.51,98.06h.24c.88,0,1.77-.16,1.77-1.25s-.84-1.26-1.78-1.26h-.23Zm0,3.77h-.78v-7h1c1.33,0,2.56.36,2.56,1.93a1.84,1.84,0,0,1-1.75,1.94l2.22,3.14h-1L59.7,98.75h-.19Z"/><rect class="cls-1" x="64.34" y="94.82" width="0.78" height="7"/><polygon class="cls-1" points="68.96 101.83 68.18 101.83 68.18 95.55 66.49 95.55 66.49 94.82 70.67 94.82 70.67 95.55 68.96 95.55 68.96 101.83"/><polygon class="cls-1" points="71.39 94.82 72.3 94.82 74.08 97.94 75.86 94.82 76.76 94.82 74.47 98.81 74.47 101.83 73.69 101.83 73.69 98.81 71.39 94.82"/><path class="cls-1" d="M24.49,109.94a2.87,2.87,0,1,0,2.87-2.9,2.9,2.9,0,0,0-2.87,2.9M31,110a3.65,3.65,0,1,1-3.65-3.63A3.62,3.62,0,0,1,31,110"/><polygon class="cls-1" points="32.45 106.44 32.45 113.44 33.23 113.44 33.23 109.97 35.56 109.97 35.56 109.24 33.23 109.24 33.23 107.16 35.63 107.16 35.63 106.44 32.45 106.44"/><path class="cls-1" d="M43.67,107.8a1.29,1.29,0,0,0-1.21-.76,1.11,1.11,0,0,0-1.16,1.09c0,.6.63.88,1.1,1.09l.46.21c.91.4,1.68.85,1.68,2a2.21,2.21,0,0,1-4.38.35l.76-.21a1.44,1.44,0,0,0,1.4,1.3,1.41,1.41,0,0,0,1.44-1.37c0-.81-.64-1.09-1.29-1.39L42,109.9c-.81-.38-1.52-.8-1.52-1.8a1.83,1.83,0,0,1,2-1.78,2,2,0,0,1,1.81,1.09Z"/><rect class="cls-1" x="46.08" y="106.44" width="0.78" height="7"/><polygon class="cls-1" points="48.7 113.44 49.48 113.44 49.48 108.05 54.94 113.76 54.94 106.44 54.16 106.44 54.16 111.86 48.7 106.14 48.7 113.44"/><path class="cls-1" d="M63.29,109.92a3.32,3.32,0,0,1-.73,2.47A3.42,3.42,0,0,1,60,113.56a3.62,3.62,0,1,1,3-5.73l-.57.53A2.83,2.83,0,0,0,60,107,2.91,2.91,0,0,0,57.15,110a2.87,2.87,0,0,0,.81,2,3,3,0,0,0,2,.89,2.4,2.4,0,0,0,2.5-2.19H60.37v-.73Z"/><path class="cls-1" d="M67.33,107.92l1.17,2.81H66.14Zm-3.21,5.52H65l.85-2h3l.83,2h.86l-3.15-7.34Z"/><path class="cls-1" d="M72.42,109.65h.52c.86,0,1.59-.26,1.59-1.26s-.92-1.23-1.83-1.23h-.28Zm0,3.79h-.78v-7h1.15a3,3,0,0,1,1.74.37,1.93,1.93,0,0,1,.78,1.6,2,2,0,0,1-.66,1.5,2.55,2.55,0,0,1-1.67.47h-.56Z"/><path class="cls-1" d="M77.11,109.94A2.87,2.87,0,1,0,80,107a2.9,2.9,0,0,0-2.87,2.9m6.52,0A3.65,3.65,0,1,1,80,106.32,3.62,3.62,0,0,1,83.63,110"/><path class="cls-1" d="M85.85,109.68h.24c.88,0,1.77-.17,1.77-1.25s-.84-1.27-1.78-1.27h-.23Zm0,3.76h-.79v-7h1c1.33,0,2.56.35,2.56,1.93a1.83,1.83,0,0,1-1.76,1.93l2.23,3.14h-1L86,110.37h-.19Z"/><polygon class="cls-1" points="90.47 106.44 90.47 113.44 94.11 113.44 94.11 112.72 91.26 112.72 91.26 109.97 94.02 109.97 94.02 109.24 91.26 109.24 91.26 107.16 94.11 107.16 94.11 106.44 90.47 106.44"/><path class="cls-2" d="M62.71,11.51c-10,2.3-19.94,10.87-31,21.86C28.9,36.22,26,39.09,23,41.72l0-19.44H39C46.55,15.46,53.13,11.16,60.29,9.5,54,4.29,44.85,0,36.07,0A36.06,36.06,0,0,0,4.65,53.77l.95,1.32c8.25-1.83,18.06-8.51,28.46-19.4C44.12,25.16,55.68,16.14,64.42,14Z"/><path class="cls-3" d="M9.67,60.56c10-2.29,19.94-10.86,31-21.86,2.86-2.85,5.8-5.72,8.72-8.34l0,19.43-16,0c-7.53,6.8-14.11,11.11-21.27,12.76,6.25,5.21,15.44,9.5,24.22,9.5A36.06,36.06,0,0,0,67.74,18.3l-1-1.31c-8.25,1.82-18.06,8.51-28.46,19.39C28.27,46.91,16.7,55.94,8,58.05Z"/></g></g></svg>