<svg xmlns="http://www.w3.org/2000/svg" viewBox="0 0 64 64"><defs><style>.cls-1,.cls-3{fill:none;stroke:#2770a0;stroke-miterlimit:10;stroke-width:2px;}.cls-2{fill:#2770a0;}.cls-3{stroke-linecap:round;}</style></defs><g id="Final_drawing" data-name="Final drawing"><path class="cls-1" d="M28.83,33.34c-.52,0-1,.08-1.57.08a20.16,20.16,0,0,1-2.21-.16"/><path class="cls-1" d="M15,27.69c-2.83-2.89-3.75-6-3.75-10.31a16,16,0,0,1,32.08,0c0,.41,0,.82,0,1.22"/><path class="cls-2" d="M13.58,24.7l.2,0a1.19,1.19,0,0,1,1,1.37,1.18,1.18,0,0,1-1.17,1l-.2,0a1.19,1.19,0,0,1,.19-2.37m0-2a3.22,3.22,0,1,0,.54.05,3.29,3.29,0,0,0-.54-.05Z"/><path class="cls-2" d="M12.85,19.44a10.77,10.77,0,0,1,1.88,21.37l-1.39.24-.23,1.4L10.33,59,7.74,60.45,5.57,58.38l.66-.74L7,56.73,6.62,55.6l-.68-1.81,1.15-1.28.81-.9-.43-1.14L6.8,48.66,8,47.38l.68-.76-.21-1-.23-1,.48-2.88.23-1.39-1.24-.68a10.77,10.77,0,0,1,5.19-20.19m0-2A12.77,12.77,0,0,0,6.69,41.38l-.53,3.25L6.46,46l-2,2.19,1.1,2.94-2,2.19,1.1,2.94-2,2.18,4.64,4.43,4.72-2.6,2.94-17.53a12.77,12.77,0,0,0-2.23-25.34Z"/><path class="cls-2" d="M43.17,17.42v2a2.42,2.42,0,0,1,1.73.71L60.79,36a2.47,2.47,0,0,1,0,3.48L50,50.24a2.48,2.48,0,0,1-1.76.73,2.41,2.41,0,0,1-1.72-.71L30.65,34.37a2.46,2.46,0,0,1-.71-1.74l0-3.29L30,21.82a2.27,2.27,0,0,1,.52-1.5l.09-.1a2.47,2.47,0,0,1,1.73-.71l10.77-.09,0-2m0,0h0l-10.77.09a4.42,4.42,0,0,0-3.14,1.32l-.14.15a4.21,4.21,0,0,0-1,2.83c0,2.5-.07,7.93-.1,10.8a4.43,4.43,0,0,0,1.3,3.17l15.89,15.9A4.44,4.44,0,0,0,48.27,53a4.51,4.51,0,0,0,3.17-1.31L62.18,40.91a4.45,4.45,0,0,0,0-6.3L46.31,18.71a4.43,4.43,0,0,0-3.14-1.29Z"/><path class="cls-3" d="M53.81,33.25l-7.63-.2a2.58,2.58,0,0,0-1.91.68l0,0a2.59,2.59,0,0,0-.68,1.9l.21,7.64"/><path class="cls-1" d="M43.75,39.79l5.84,5.83a1.38,1.38,0,0,0,1.94-.15L56,41a1.39,1.39,0,0,0,.15-1.94l-5.84-5.84"/></g></svg>