<svg xmlns="http://www.w3.org/2000/svg" width="13" height="20" viewBox="0 0 13 20">
  <g fill="#737373" transform="matrix(-1 0 0 1 13 .673)">
    <path d="M6.5,0 C2.91591043,0 0,2.8926588 0,6.44821617 C0,7.87701747 0.847944664,10.0499611 2.66854778,13.2865341 C3.91089346,15.4949591 5.1475119,17.3603204 5.19968052,17.4388973 L6.09348214,18.7828989 C6.18359867,18.918447 6.33628637,19 6.5,19 C6.66371363,19 6.81640133,18.918447 6.90651786,18.7828989 L7.80028052,17.4389746 C7.85194265,17.3612866 9.07956112,15.5120428 10.3314522,13.2865341 C12.1520553,10.0501157 13,7.87717207 13,6.44821617 C13,2.8926588 10.0840896,0 6.5,0 Z M9.48093614,12.8156523 C8.24646055,15.0100472 7.0382446,16.8302643 6.98732273,16.9067541 L6.5,17.6395332 L6.01283312,16.9069474 C5.96163851,16.8298392 4.74414987,14.9933114 3.51906386,12.8156523 C1.83030437,9.81341872 0.974022082,7.67108641 0.974022082,6.44821617 C0.974022082,3.42545903 3.45294724,0.96626809 6.5,0.96626809 C9.54705276,0.96626809 12.0259779,3.42545903 12.0259779,6.44821617 C12.0259779,7.67124101 11.1696956,9.81349602 9.48093614,12.8156523 Z"/>
    <path d="M6.5,3 C4.57008108,3 3,4.57011892 3,6.5 C3,8.42988108 4.57008108,10 6.5,10 C8.42991892,10 10,8.42988108 10,6.5 C10,4.57011892 8.42991892,3 6.5,3 Z M6.5,9.05405405 C5.09167568,9.05405405 3.94594595,7.90832432 3.94594595,6.5 C3.94594595,5.09167568 5.09167568,3.94594595 6.5,3.94594595 C7.90836216,3.94594595 9.05405405,5.09167568 9.05405405,6.5 C9.05405405,7.90832432 7.90836216,9.05405405 6.5,9.05405405 Z"/>
  </g>
</svg>
