<svg xmlns="http://www.w3.org/2000/svg" width="32" height="32" viewBox="0 0 32 32">
  <g fill="none">
    <path fill="#000" d="M30.6666875,0 L6.6666875,0 C5.9303125,0 5.3333125,0.5969375 5.3333125,1.3333125 L5.3333125,10.666625 C5.3333125,11.403 5.93025,11.9999375 6.666625,11.9999375 C7.403,11.9999375 7.9999375,11.403 7.9999375,10.666625 L7.9999375,2.666625 L29.33325,2.666625 L29.33325,29.3333125 L8,29.3333125 L8,21.3333125 C8,20.5969375 7.4030625,20 6.6666875,20 C5.9303125,20 5.3333125,20.5969375 5.3333125,21.3333125 L5.3333125,30.666625 C5.3333125,31.403 5.9303125,31.9999375 6.6666875,31.9999375 L30.6666875,31.9999375 C31.4030625,31.9999375 32,31.403 32,30.666625 L32,1.3333125 C32,0.5969375 31.4030625,0 30.6666875,0 Z"/>
    <path fill="#2770A0" d="M12.3905,20.3906875 C11.8698125,20.911375 11.8698125,21.755625 12.3905,22.2763125 C12.9111875,22.797 13.7554375,22.797 14.276125,22.2763125 L19.6094375,16.943 C19.6096875,16.94275 19.6098125,16.9425 19.6100625,16.9423125 C19.640875,16.9114375 19.6700625,16.8790625 19.69775,16.8453125 C19.7104375,16.829875 19.7214375,16.813625 19.7333125,16.79775 C19.7475,16.7788125 19.7621875,16.76025 19.775375,16.7405 C19.7880625,16.7215 19.7990625,16.7018125 19.8106875,16.6823125 C19.821375,16.6644375 19.8325625,16.647 19.8424375,16.628625 C19.8530625,16.60875 19.8620625,16.588375 19.871625,16.5680625 C19.8806875,16.548875 19.89025,16.53 19.8984375,16.510375 C19.9065625,16.4906875 19.9131875,16.4705625 19.9203125,16.4505625 C19.927875,16.4295 19.9359375,16.40875 19.9424375,16.38725 C19.9485,16.36725 19.9529375,16.346875 19.958,16.3266875 C19.9635625,16.30475 19.9696875,16.2830625 19.974125,16.26075 C19.97875,16.2373125 19.9815625,16.2136875 19.9849375,16.190125 C19.9876875,16.1706875 19.9914375,16.1515625 19.993375,16.1318125 C20.002,16.0443125 20.002,15.956125 19.993375,15.868625 C19.9914375,15.8489375 19.98775,15.8298125 19.9849375,15.8103125 C19.9815625,15.78675 19.9788125,15.7630625 19.974125,15.7396875 C19.9696875,15.7173125 19.9635625,15.6956875 19.958,15.67375 C19.9529375,15.6535 19.9485,15.6331875 19.9424375,15.6131875 C19.9359375,15.5916875 19.927875,15.570875 19.9203125,15.549875 C19.913125,15.529875 19.9065625,15.50975 19.8984375,15.4900625 C19.8903125,15.470375 19.8806875,15.4515625 19.871625,15.432375 C19.8620625,15.412125 19.8530625,15.3916875 19.8424375,15.3718125 C19.8325625,15.3534375 19.821375,15.336 19.8106875,15.318125 C19.7990625,15.298625 19.7880625,15.2789375 19.775375,15.2599375 C19.7621875,15.2401875 19.7475,15.2216875 19.7333125,15.2026875 C19.7214375,15.1868125 19.7104375,15.1705625 19.69775,15.155125 C19.6700625,15.121375 19.640875,15.0889375 19.6100625,15.058125 C19.6098125,15.057875 19.6096875,15.057625 19.6094375,15.0574375 L14.276125,9.724125 C13.7554375,9.2034375 12.9111875,9.2034375 12.3905,9.724125 C11.8698125,10.2448125 11.8698125,11.0890625 12.3905,11.60975 L15.4476875,14.6669375 L1.3333125,14.6669375 C0.5969375,14.6668125 0,15.26375 0,16.000125 C0,16.7365 0.5969375,17.3334375 1.3333125,17.3334375 L15.4476875,17.3334375 L12.3905,20.3906875 Z"/>
  </g>
</svg>
