<svg xmlns="http://www.w3.org/2000/svg" viewBox="0 0 64 64"><defs><style>.cls-1{fill:#2770a0;}.cls-2,.cls-3{fill:none;stroke:#2770a0;stroke-miterlimit:10;stroke-width:2px;}.cls-2{stroke-linecap:round;}</style></defs><g id="Final_drawing" data-name="Final drawing"><path class="cls-1" d="M38,44.25a2.15,2.15,0,0,1,1.55.65A2.19,2.19,0,1,1,38,44.25m0-2a4.2,4.2,0,1,0,3,1.23,4.18,4.18,0,0,0-3-1.23Z"/><line class="cls-2" x1="23.8" y1="50.75" x2="40.2" y2="27.28"/><path class="cls-1" d="M26,28.94a2.2,2.2,0,0,1,0,4.4,2.15,2.15,0,0,1-1.55-.65,2.2,2.2,0,0,1,0-3.11A2.14,2.14,0,0,1,26,28.94m0-2a4.2,4.2,0,0,0,0,8.4,4.2,4.2,0,1,0,0-8.4Z"/><path class="cls-1" d="M38.07,2a1.88,1.88,0,0,1,1.27.47l15.44,14.1a1.21,1.21,0,0,1,.42.88V60.64A1.58,1.58,0,0,1,53.49,62h-43A1.58,1.58,0,0,1,8.8,60.64V3.36A1.58,1.58,0,0,1,10.51,2H38.07m0-2H10.51A3.54,3.54,0,0,0,6.8,3.36V60.64A3.54,3.54,0,0,0,10.51,64h43a3.54,3.54,0,0,0,3.71-3.36V17.45a3.2,3.2,0,0,0-1.07-2.36L40.69,1a3.91,3.91,0,0,0-2.62-1Z"/><path class="cls-3" d="M56.22,18.15H41.07a3.34,3.34,0,0,1-3.31-3.36V1.14"/></g></svg>