<svg xmlns="http://www.w3.org/2000/svg" width="25" height="24" viewBox="0 0 25 24">
  <g fill="none" transform="translate(.4 3.727)">
    <polygon fill="#56ACE0" points="21.424 1.388 2.528 1.388 11.976 9.205"/>
    <path fill="#FFF" d="M11.5431407,10.570312 L1.32932992,2.11832225 L1.32932992,14.6256982 C1.32932992,14.9907315 1.62690537,15.2923581 1.99598977,15.2923581 L21.9553964,15.2923581 C22.320491,15.2923581 22.6220563,14.9947212 22.6220563,14.6256982 L22.6220563,2.11832225 L12.4082455,10.570312 C12.2732685,10.7012379 11.9438977,10.8679488 11.5431407,10.570312 Z"/>
    <path fill="#194F82" d="M21.955335,0.0549360614 L1.99592839,0.0549360614 C0.896777494,0.0549360614 0,0.951713555 0,2.05086445 L0,14.6574322 C0,15.7565831 0.896777494,16.6533606 1.99592839,16.6533606 L21.955335,16.6533606 C23.0544859,16.6533606 23.9512634,15.7565831 23.9512634,14.6574322 L23.9512634,2.05485422 C23.9512634,0.955703325 23.0544859,0.0549360614 21.955335,0.0549360614 Z M22.6219335,14.6256982 C22.6219335,14.9907315 22.3242967,15.2923581 21.9552737,15.2923581 L1.99592839,15.2923581 C1.63089514,15.2923581 1.32926854,14.9947212 1.32926854,14.6256982 L1.32926854,2.11832225 L11.5430793,10.5663223 C11.9438363,10.8638977 12.2732072,10.6655141 12.4081228,10.5663223 L22.6219335,2.11832225 L22.6219335,14.6256982 Z M21.4235908,1.38819437 L11.9756317,9.20531969 L2.52767263,1.38819437 C2.52767263,1.38819437 21.4235908,1.38819437 21.4235908,1.38819437 Z"/>
    <path fill="#FFC10D" d="M13.507335,11.8996419 C12.6422916,12.6297698 11.344757,12.6297698 10.4797136,11.8996419 L2.66258824,5.44750895 L2.66258824,8.54258824 L4.95615345,8.54258824 C5.3211867,8.54258824 5.6228133,8.84016368 5.6228133,9.20924808 C5.6228133,9.57428133 5.32523785,9.87590793 4.95615345,9.87590793 L2.66258824,9.87590793 L2.66258824,11.2052379 L3.62682353,11.2052379 C3.99185678,11.2052379 4.29348338,11.5028133 4.29348338,11.8718977 C4.29348338,12.2369309 3.99590793,12.5385575 3.62682353,12.5385575 L2.66258824,12.5385575 L2.66258824,13.9670793 L21.292665,13.9670793 L21.292665,5.44750895 L13.507335,11.8996419 Z"/>
  </g>
</svg>
