<svg xmlns="http://www.w3.org/2000/svg" width="15" height="18" viewBox="0 0 15 18">
  <g fill="#FFF" transform="translate(-.623 .32)">
    <path d="M15.1395192,12.6824369 C14.0161992,11.7240594 13.3721061,10.3232905 13.3721061,8.83931577 L13.3721061,6.74873481 C13.3721061,4.11003883 11.430169,1.92567963 8.91473742,1.55976618 L8.91473742,0.749813647 C8.91473742,0.335157496 8.58187666,-7.99360578e-15 8.17188799,-7.99360578e-15 C7.76176326,-7.99360578e-15 7.4289025,0.335157496 7.4289025,0.749813647 L7.4289025,1.55976618 C4.91279078,1.92567963 2.97153379,4.11003883 2.97153379,6.74873481 L2.97153379,8.83931577 C2.97153379,10.3232905 2.32744077,11.7240594 1.19759137,12.6883409 C0.908531674,12.9380957 0.742849434,13.3009885 0.742849434,13.6848887 C0.742849434,14.4086147 1.3260019,14.9972342 2.04300601,14.9972342 L14.30077,14.9972342 C15.017638,14.9972342 15.6007905,14.4086147 15.6007905,13.6848887 C15.6007905,13.3009885 15.4351083,12.9380957 15.1395192,12.6824369 Z"/>
    <path d="M8.17181998,17.1269443 C9.51713785,17.1269443 10.6426343,16.1588183 10.9012238,14.877366 L5.44241617,14.877366 C5.70086959,16.1588183 6.82636605,17.1269443 8.17181998,17.1269443 Z"/>
  </g>
</svg>
