<svg xmlns="http://www.w3.org/2000/svg" width="32" height="33" viewBox="0 0 32 33">
  <g fill="none" transform="translate(0 .678)">
    <circle cx="21.125" cy="21.625" r="1.25" fill="#2770A0"/>
    <path fill="#000" d="M14.875,29.5 L5,29.5 C3.6215,29.5 2.5,28.3785 2.5,27 L2.5,16.75 C2.5,15.3715 3.6215,14.25 5,14.25 L23,14.25 C24.3785,14.25 25.5,15.3715 25.5,16.75 L25.5,19.25 C25.5,19.940375 26.059625,20.5 26.75,20.5 C27.440375,20.5 28,19.940375 28,19.25 L28,16.75 C28,13.993 25.757,11.75 23,11.75 L21.4976875,11.75 L21.4976875,7.341625 C21.4976875,3.2934375 18.1331875,0 13.9976875,0 C9.8621875,0 6.4976875,3.2934375 6.4976875,7.341625 L6.4976875,11.75 L5,11.75 C2.243,11.75 0,13.993 0,16.75 L0,27 C0,29.757 2.243,32 5,32 L14.875,32 C15.565375,32 16.125,31.440375 16.125,30.75 C16.125,30.059625 15.565375,29.5 14.875,29.5 Z M8.9976875,7.341625 C8.9976875,4.6719375 11.2406875,2.5 13.9976875,2.5 C16.7546875,2.5 18.9976875,4.6719375 18.9976875,7.341625 L18.9976875,11.75 L8.9976875,11.75 L8.9976875,7.341625 Z"/>
    <path fill="#2770A0" d="M31.4776875,20.358625 C30.9163125,19.9566875 30.135375,20.086 29.7336875,20.647375 L23.572375,29.253625 C23.404125,29.44875 23.19325,29.490875 23.08025,29.498375 C22.964375,29.5060625 22.74125,29.491375 22.5448125,29.3070625 L18.5630625,25.421375 C18.0689375,24.939125 17.2775625,24.9489375 16.7954375,25.4429375 C16.31325,25.937 16.322875,26.728375 16.817,27.2105625 L20.80575,31.103125 C20.8095,31.10675 20.8131875,31.110375 20.817,31.1139375 C21.4149375,31.68325 22.213125,31.9999375 23.034375,31.9999375 C23.1049375,31.9999375 23.1756875,31.997625 23.2464375,31.992875 C24.1410625,31.93325 24.976375,31.4981875 25.5380625,30.7993125 C25.5525625,30.7811875 25.5665625,30.76275 25.580125,30.743875 L31.7664375,22.102625 C32.16825,21.5413125 32.039,20.7604375 31.4776875,20.358625 Z"/>
    <circle cx="16.375" cy="21.625" r="1.25" fill="#2770A0"/>
    <circle cx="7" cy="21.625" r="1.25" fill="#2770A0"/>
    <circle cx="11.688" cy="21.625" r="1.25" fill="#2770A0"/>
  </g>
</svg>
