<svg xmlns="http://www.w3.org/2000/svg" width="64" height="65" viewBox="0 0 64 65">
  <g fill="#2770A0" transform="translate(0 .5)">
    <path d="M42 42C41.3100586 42 40.75 42.5600586 40.75 43.25 40.75 43.9399414 41.3100586 44.5 42 44.5 42.6899414 44.5 43.25 43.9399414 43.25 43.25 43.25 42.5600586 42.6899414 42 42 42zM25 40.75C24.3105469 40.75 23.75 40.1894531 23.75 39.5 23.75 38.8105469 24.3105469 38.25 25 38.25 25.4428711 38.25 25.9101562 38.4760742 26.3520507 38.9033202 26.8481445 39.3833007 27.6396485 39.3706055 28.1196289 38.8740235 28.5996094 38.3779297 28.5864257 37.586914 28.090332 37.1069336 27.4560547 36.4926757 26.821289 36.1455077 26.25 35.9560547L26.25 34.5C26.25 33.8095702 25.6904297 33.25 25 33.25 24.3095703 33.25 23.75 33.8095702 23.75 34.5L23.75 35.9648437C22.2949219 36.480957 21.25 37.8706055 21.25 39.5 21.25 41.5678711 22.9321289 43.25 25 43.25 25.6889649 43.25 26.25 43.8105469 26.25 44.5 26.25 45.1894531 25.6889649 45.75 25 45.75 24.4658203 45.75 23.8891601 45.4140625 23.3764649 44.8041992 22.9326172 44.2758789 22.144043 44.2075195 21.6157226 44.6518555 21.086914 45.0961914 21.019043 45.8847656 21.4628906 46.413086 22.1313476 47.2080077 22.9169922 47.7617187 23.75 48.0410156L23.75 49.5C23.75 50.1904297 24.3095703 50.75 25 50.75 25.6904297 50.75 26.25 50.1904297 26.25 49.5L26.25 48.0351562C27.7045899 47.519043 28.75 46.1293945 28.75 44.5 28.75 42.4321289 27.0678711 40.75 25 40.75L25 40.75zM15 20.75C15.6904297 20.75 16.25 20.1904297 16.25 19.5L16.25 14.5C16.25 13.8095703 15.6904297 13.25 15 13.25 14.3095703 13.25 13.75 13.8095703 13.75 14.5L13.75 19.5C13.75 20.1904297 14.3095703 20.75 15 20.75z"/>
    <path d="M59,29.5 L59,19.5 C59,16.053711 56.196289,13.25 52.75,13.25 L45.75,13.25 L45.75,3.75 C45.75,1.68212888 44.0678711,0 42,0 L18.75,0 C16.6821289,0 15,1.68212888 15,3.75 L15,8.25 L11.25,8.25 C9.18212888,8.25 7.5,9.93212888 7.5,12 L7.5,13.25 L6.25,13.25 C2.803711,13.25 0,16.053711 0,19.5 L0,57.75 C0,61.196289 2.803711,64 6.25,64 L44.5,64 C47.5180664,64 50.043457,61.8496094 50.6240235,59 L52.75,59 C56.196289,59 59,56.196289 59,52.75 L59,49.5 L60.25,49.5 C62.3178711,49.5 64,47.8178711 64,45.75 L64,34.5 C64,31.743164 61.756836,29.5 59,29.5 Z M61.5,34.5 C61.5,35.8808594 60.3808594,37 59,37 L59,32 C60.378418,32 61.5,33.121582 61.5,34.5 Z M52.75,15.75 C54.8178711,15.75 56.5,17.4321289 56.5,19.5 L56.5,37 L50.75,37 L50.75,29.5 C50.75,26.4819336 48.5996094,23.956543 45.75,23.3759765 L45.75,15.75 L52.75,15.75 Z M17.5,3.75 C17.5,3.06054688 18.0605469,2.5 18.75,2.5 L42,2.5 C42.6894531,2.5 43.25,3.06054688 43.25,3.75 L43.25,23.25 L37.5,23.25 L37.5,12 C37.5,9.93212888 35.8178711,8.25 33.75,8.25 L17.5,8.25 L17.5,3.75 Z M30,23.25 L30,10.75 L33.75,10.75 C34.4394531,10.75 35,11.3105469 35,12 L35,23.25 L30,23.25 Z M22.5,23.25 L22.5,10.75 L27.5,10.75 L27.5,23.25 L22.5,23.25 Z M10,12 C10,11.3105469 10.5605469,10.75 11.25,10.75 L20,10.75 L20,23.25 L10,23.25 L10,12 Z M6.25,15.75 L7.5,15.75 L7.5,23.25 L6.51757812,23.25 C4.45166013,23.25 2.5,21.7539062 2.5,19.5 C2.5,17.4321289 4.18212888,15.75 6.25,15.75 Z M44.5,61.5 L6.25,61.5 C4.18212888,61.5 2.5,59.8178711 2.5,57.75 L2.5,24.4228515 C3.61767575,25.2553711 5.02148438,25.75 6.51757812,25.75 L44.5,25.75 C46.5678711,25.75 48.25,27.4321289 48.25,29.5 L48.25,37 L39.5,37 C37.4321289,37 35.75,38.6821289 35.75,40.75 L35.75,45.75 C35.75,47.8178711 37.4321289,49.5 39.5,49.5 L48.25,49.5 L48.25,57.75 C48.25,59.8178711 46.5678711,61.5 44.5,61.5 Z M56.5,52.75 C56.5,54.8178711 54.8178711,56.5 52.75,56.5 L50.75,56.5 L50.75,49.5 L56.5,49.5 L56.5,52.75 Z M60.25,47 L39.5,47 C38.8105469,47 38.25,46.4394531 38.25,45.75 L38.25,40.75 C38.25,40.0605469 38.8105469,39.5 39.5,39.5 L59,39.5 C59.8920899,39.5 60.7480469,39.2666015 61.5,38.8305664 L61.5,45.75 C61.5,46.4394531 60.9394531,47 60.25,47 Z"/>
    <path d="M52.75,42 L47,42 C46.3095703,42 45.75,42.5595703 45.75,43.25 C45.75,43.9404297 46.3095703,44.5 47,44.5 L52.75,44.5 C53.4404297,44.5 54,43.9404297 54,43.25 C54,42.5595703 53.4404297,42 52.75,42 Z"/>
  </g>
</svg>
