<svg xmlns="http://www.w3.org/2000/svg" width="25" height="24" viewBox="0 0 25 24">
  <g fill="none" transform="translate(.6)">
    <path fill="#56ACE0" d="M6.31658015,5.72396947 C7.00745038,5.72396947 7.66277863,6.08714504 8.0220458,6.67541985 L9.23798473,8.66119084 C9.35639695,8.85856489 9.57752672,8.97703817 9.80250382,8.97703817 L18.2785954,8.97703817 L19.2418931,6.52146565 C19.3721527,6.18192366 19.2103206,5.79505344 18.8629008,5.65685496 L7.98259542,1.39309924 C7.64305344,1.26283969 7.25618321,1.42467176 7.11798473,1.7720916 L5.56653435,5.72396947 L6.31658015,5.72396947 Z"/>
    <path fill="#FFF" d="M21.9738626,10.3152977 L9.80653435,10.3152977 C9.11566412,10.3152977 8.46033588,9.95212214 8.1010687,9.36384733 L6.88512977,7.37807634 C6.76671756,7.18070229 6.54558779,7.06222901 6.32061069,7.06222901 L1.99761832,7.06222901 C1.63047328,7.06222901 1.33044275,7.35829008 1.33044275,7.72940458 L1.33044275,21.5943206 C1.33044275,21.9614656 1.62650382,22.2614962 1.99761832,22.2614962 L21.9738626,22.2614962 C22.3410076,22.2614962 22.6410382,21.9654351 22.6410382,21.5943206 L22.6410382,10.9824122 C22.6410382,10.6153893 22.3410076,10.3152977 21.9738626,10.3152977 Z"/>
    <path fill="#FFC10D" d="M9.80256489,11.6378626 C8.64977099,11.6378626 7.5640916,11.0298626 6.96012214,10.0468397 L5.93764885,8.37691603 L2.6608855,8.37691603 L2.6608855,10.9232977 L5.16781679,10.9232977 C5.53496183,10.9232977 5.83499237,11.2193588 5.83499237,11.5904733 C5.83499237,11.9576183 5.5389313,12.2576489 5.16781679,12.2576489 L2.6608855,12.2576489 L2.6608855,13.9789313 L4.22821374,13.9789313 C4.59535878,13.9789313 4.89538931,14.2749924 4.89538931,14.6461069 C4.89538931,15.0132519 4.59932824,15.3132824 4.22821374,15.3132824 L2.6608855,15.3132824 L2.6608855,20.9152977 L21.306687,20.9152977 L21.306687,11.6378626 L9.80256489,11.6378626 Z"/>
    <g fill="#194F82">
      <path d="M8.26687023 4.63041221L16.4547786 7.84793893C16.7943206 7.9861374 17.1772214 7.80451908 17.3193893 7.46894656 17.4575878 7.12549618 17.2878168 6.74253435 16.9403969 6.60433588L8.75242748 3.38680916C8.4089771 3.24861069 8.0220458 3.41838168 7.88781679 3.76580153 7.75364885 4.11322137 7.92335878 4.5000916 8.26687023 4.63041221zM11.985771 14.2869008C12.4003053 14.2869008 12.7397863 14.6264427 12.7397863 15.040916 12.7397863 15.3606718 13.0003664 15.6212519 13.3201221 15.6212519 13.6398779 15.6212519 13.900458 15.3606718 13.900458 15.040916 13.900458 14.1881527 13.3398473 13.4617405 12.5661069 13.2130687L12.5661069 12.8893435C12.5661069 12.5695878 12.3055267 12.3090076 11.985771 12.3090076 11.6660153 12.3090076 11.4054351 12.5695878 11.4054351 12.8893435L11.4054351 13.2090992C10.6316336 13.4538626 10.071084 14.1802748 10.071084 15.0369466 10.071084 16.0949618 10.9317252 16.9516947 11.9858321 16.9516947 11.9700153 16.9516947 11.9858321 16.9516947 11.9898015 16.9516947 12.3727634 16.991145 12.7399084 17.3069924 12.7399084 17.6978321 12.7399084 18.1123664 12.4003664 18.4518473 11.9858931 18.4518473 11.5713588 18.4518473 11.2318779 18.1123053 11.2318779 17.6978321 11.2318779 17.3780763 10.9712977 17.1174962 10.651542 17.1174962 10.3317863 17.1174962 10.0712061 17.3780763 10.0712061 17.6978321 10.0712061 18.5505954 10.6318168 19.2770076 11.4055573 19.5256794L11.4055573 19.8454351C11.4055573 20.1651908 11.6661374 20.425771 11.9858931 20.425771 12.3056489 20.425771 12.566229 20.1651908 12.566229 19.8454351L12.566229 19.5256794C13.3400305 19.280916 13.9005802 18.5545038 13.9005802 17.6978321 13.9005802 16.6398168 12.9728244 15.7870534 11.9148092 15.7870534 11.930626 15.7870534 11.9148092 15.7870534 11.9108397 15.7870534 11.5278779 15.7476031 11.2318168 15.4277863 11.2318168 15.0369466 11.2316947 14.6224733 11.5712366 14.2869008 11.985771 14.2869008z"/>
      <path d="M21.9738626,8.98491603 L19.7077863,8.98491603 L20.4815878,7.01887023 C20.8842748,5.99639695 20.3789313,4.83572519 19.3524885,4.4290687 L8.46821374,0.153465649 C7.50100763,-0.23340458 6.30082443,0.220580153 5.87841221,1.28256489 L4.13343511,5.72396947 L1.99761832,5.72396947 C0.896183206,5.72396947 0,6.6200916 0,7.72158779 L0,21.5904733 C0,22.6919084 0.896183206,23.5880916 1.99761832,23.5880916 L21.9738626,23.5880916 C23.0752977,23.5880916 23.9714809,22.6919084 23.9714809,21.5904733 L23.9714809,10.9825344 C23.9714809,9.88500763 23.0753588,8.98491603 21.9738626,8.98491603 Z M22.6410382,21.5943817 C22.6410382,21.9615267 22.3449771,22.2615573 21.9738626,22.2615573 L1.99761832,22.2615573 C1.63047328,22.2615573 1.33044275,21.9654962 1.33044275,21.5943817 L1.33044275,7.72158779 C1.33044275,7.35444275 1.62650382,7.05441221 1.99761832,7.05441221 L6.31658015,7.05441221 C6.54949618,7.05441221 6.76665649,7.17679389 6.88109924,7.37025954 L8.09703817,9.35603053 C8.45630534,9.94424427 9.11163359,10.3074809 9.80250382,10.3074809 L21.9738015,10.3074809 C22.3409466,10.3074809 22.6410382,10.603542 22.6410382,10.9746565 L22.6410382,21.5943817 L22.6410382,21.5943817 Z M7.98259542,1.39309924 L18.8629618,5.66864122 C19.2025038,5.79890076 19.3722137,6.19370992 19.2419542,6.53325191 L18.2786565,8.98882443 L9.80653435,8.98882443 C9.57361832,8.98882443 9.35645802,8.86644275 9.24201527,8.6729771 L8.02607634,6.68323664 C7.66680916,6.0950229 7.01148092,5.73178626 6.32061069,5.73178626 L5.57044275,5.73178626 L7.1219542,1.7720916 C7.25618321,1.42864122 7.6431145,1.25496183 7.98259542,1.39309924 Z"/>
    </g>
  </g>
</svg>
