<svg xmlns="http://www.w3.org/2000/svg" width="64" height="65" viewBox="0 0 64 65">
  <g fill="#2770A0" transform="translate(0 .5)">
    <path d="M53.6774194,43.3548387 L51.6129032,43.3548387 L51.6129032,41.2903226 L49.5483871,41.2903226 L49.5483871,43.3548387 L47.483871,43.3548387 C46.3452903,43.3548387 45.4193548,44.2807742 45.4193548,45.4193548 L45.4193548,49.5483871 C45.4193548,50.6869677 46.3452903,51.6129032 47.483871,51.6129032 L53.6774194,51.6129032 L53.6774194,55.7419355 L47.483871,55.7419355 L47.483871,53.6774194 L45.4193548,53.6774194 L45.4193548,55.7419355 C45.4193548,56.8805161 46.3452903,57.8064516 47.483871,57.8064516 L49.5483871,57.8064516 L49.5483871,59.8709677 L51.6129032,59.8709677 L51.6129032,57.8064516 L53.6774194,57.8064516 C54.816,57.8064516 55.7419355,56.8805161 55.7419355,55.7419355 L55.7419355,51.6129032 C55.7419355,50.4743226 54.816,49.5483871 53.6774194,49.5483871 L47.483871,49.5483871 L47.483871,45.4193548 L53.6774194,45.4193548 L53.6774194,47.483871 L55.7419355,47.483871 L55.7419355,45.4193548 C55.7419355,44.2807742 54.816,43.3548387 53.6774194,43.3548387 Z"/>
    <path d="M53.6774194,37.536 L53.6774194,9.29032258 C53.6774194,7.58296774 52.288,6.19354839 50.5806452,6.19354839 L43.3548387,6.19354839 L43.3548387,2.06451613 C43.3548387,0.925935484 42.4289032,0 41.2903226,0 L37.1612903,0 C36.0227097,0 35.0967742,0.925935484 35.0967742,2.06451613 L35.0967742,6.19354839 L30.9677419,6.19354839 L30.9677419,2.06451613 C30.9677419,0.925935484 30.0418065,0 28.9032258,0 L24.7741935,0 C23.6356129,0 22.7096774,0.925935484 22.7096774,2.06451613 L22.7096774,6.19354839 L18.5806452,6.19354839 L18.5806452,2.06451613 C18.5806452,0.925935484 17.6547097,0 16.516129,0 L12.3870968,0 C11.2485161,0 10.3225806,0.925935484 10.3225806,2.06451613 L10.3225806,6.19354839 L3.09677419,6.19354839 C1.38941935,6.19354839 0,7.58296774 0,9.29032258 L0,54.7096774 C0,57.5556129 2.31535484,59.8709677 5.16129032,59.8709677 L40.9197419,59.8709677 C43.3630968,62.4103226 46.7870968,64 50.5806452,64 C57.979871,64 64,57.979871 64,50.5806452 C64,44.2487742 59.5860645,38.939871 53.6774194,37.536 Z M37.1612903,2.06451613 L41.2903226,2.06451613 L41.2913548,12.3870968 L37.1612903,12.3870968 L37.1612903,2.06451613 Z M24.7741935,2.06451613 L28.9032258,2.06451613 L28.9042581,12.3870968 L24.7741935,12.3870968 L24.7741935,2.06451613 Z M12.3870968,2.06451613 L16.516129,2.06451613 L16.5171613,12.3870968 L12.3870968,12.3870968 L12.3870968,2.06451613 Z M3.09677419,8.25806452 L10.3225806,8.25806452 L10.3225806,12.3870968 C10.3225806,13.5256774 11.2485161,14.4516129 12.3870968,14.4516129 L16.516129,14.4516129 C17.6547097,14.4516129 18.5806452,13.5256774 18.5806452,12.3870968 L18.5806452,8.25806452 L22.7096774,8.25806452 L22.7096774,12.3870968 C22.7096774,13.5256774 23.6356129,14.4516129 24.7741935,14.4516129 L28.9032258,14.4516129 C30.0418065,14.4516129 30.9677419,13.5256774 30.9677419,12.3870968 L30.9677419,8.25806452 L35.0967742,8.25806452 L35.0967742,12.3870968 C35.0967742,13.5256774 36.0227097,14.4516129 37.1612903,14.4516129 L41.2903226,14.4516129 C42.4289032,14.4516129 43.3548387,13.5256774 43.3548387,12.3870968 L43.3548387,8.25806452 L50.5806452,8.25806452 C51.1504516,8.25806452 51.6129032,8.72154839 51.6129032,9.29032258 L51.6129032,18.5806452 L2.06451613,18.5806452 L2.06451613,9.29032258 C2.06451613,8.72154839 2.52696774,8.25806452 3.09677419,8.25806452 Z M5.16129032,57.8064516 C3.45393548,57.8064516 2.06451613,56.4170323 2.06451613,54.7096774 L2.06451613,20.6451613 L51.6129032,20.6451613 L51.6129032,37.2139355 C51.2712258,37.1870968 50.9295484,37.1612903 50.5806452,37.1612903 C50.2317419,37.1612903 49.8900645,37.1870968 49.5483871,37.2139355 L49.5483871,24.7741935 C49.5483871,23.6356129 48.6224516,22.7096774 47.483871,22.7096774 L6.19354839,22.7096774 C5.05496774,22.7096774 4.12903226,23.6356129 4.12903226,24.7741935 L4.12903226,53.6774194 C4.12903226,54.816 5.05496774,55.7419355 6.19354839,55.7419355 L38.1966452,55.7419355 C38.4990968,56.4665806 38.8717419,57.1530323 39.2908387,57.8064516 L5.16129032,57.8064516 Z M40.416,41.8446452 L38.4516129,39.2258065 L41.2903226,35.4405161 L41.2903226,33.0322581 L39.2258065,33.0322581 L39.2258065,34.7530323 L37.1612903,37.5060645 L35.0967742,34.7530323 L35.0967742,33.0322581 L33.0322581,33.0322581 L33.0322581,35.4405161 L35.8709677,39.2258065 L33.0322581,43.0110968 L33.0322581,45.4193548 L35.0967742,45.4193548 L35.0967742,43.6985806 L37.1612903,40.9455484 L39.1463226,43.5922581 C37.8952258,45.6309677 37.1612903,48.0185806 37.1612903,50.5806452 C37.1612903,51.648 37.2996129,52.6812903 37.536,53.6774194 L6.19354839,53.6774194 L6.19354839,24.7741935 L47.483871,24.7741935 L47.483871,37.536 C44.6885161,38.2007742 42.2317419,39.7347097 40.416,41.8446452 Z M50.5806452,61.9354839 C44.32,61.9354839 39.2258065,56.8412903 39.2258065,50.5806452 C39.2258065,44.32 44.32,39.2258065 50.5806452,39.2258065 C56.8412903,39.2258065 61.9354839,44.32 61.9354839,50.5806452 C61.9354839,56.8412903 56.8412903,61.9354839 50.5806452,61.9354839 Z"/>
    <path d="M25.0002581,33.0322581 L22.7416774,42.0717419 L22.7096774,45.4193548 L24.7741935,45.4193548 L24.7741935,43.3548387 L28.9032258,43.3548387 L28.9032258,45.4193548 L30.9677419,45.4193548 L30.9677419,42.3225806 L28.6771613,33.0322581 L25.0002581,33.0322581 Z M27.0647742,35.0967742 L28.6131613,41.2903226 L25.0642581,41.2903226 L26.6126452,35.0967742 L27.0647742,35.0967742 Z"/>
    <polygon points="22.71 35.097 22.71 33.032 12.387 33.032 12.387 35.097 16.516 35.097 16.516 45.419 18.581 45.419 18.581 35.097"/>
  </g>
</svg>
