<svg xmlns="http://www.w3.org/2000/svg" width="20" height="20" viewBox="0 0 20 20">
  <path fill="#F66B2E" d="M11.4452535,12.8867958 C11.4452535,13.5253211 10.902052,14.0429482 10.2319789,14.0429482 C9.5619059,14.0429482 9.01870438,13.5253211 9.01870438,12.8867958 L9.01870438,8.3412911 C9.01870438,7.70276573 9.5619059,7.18513865 10.2319789,7.18513865 C10.902052,7.18513865 11.4452535,7.70276573 11.4452535,8.3412911 L11.4452535,12.8867958 Z M10.1681224,17.0671997 C9.68060196,17.0895841 9.22786073,16.8269849 9.02479197,16.4040444 C8.8217232,15.9811039 8.90920986,15.4829711 9.24572648,15.1460841 C9.5822431,14.8091972 10.1000402,14.7013803 10.5533458,14.8738086 C11.0066514,15.0462369 11.3042035,15.4641961 11.3047691,15.9293022 C11.3133543,16.2230531 11.19907,16.5080119 10.9870804,16.7214338 C10.7750908,16.9348557 10.4827787,17.0592404 10.174508,17.0671997 M19.3570807,17.4627255 L11.0557285,1.03319057 C10.8755128,0.632907572 10.4623745,0.373419562 10.0052882,0.373419562 C9.54820182,0.373419562 9.13506351,0.632907572 8.95484782,1.03319057 L0.653495591,17.4627255 C0.448834803,17.8620816 0.448834803,18.3290521 0.653495591,18.7284082 C0.854131412,19.1195909 1.26938962,19.3692634 1.72628573,19.3734196 L18.3289902,19.3734196 C18.7667815,19.3545175 19.157618,19.1062271 19.3443094,18.7284082 C19.5518969,18.3297013 19.5518969,17.8614324 19.3443094,17.4627255"/>
</svg>
