<svg xmlns="http://www.w3.org/2000/svg" width="20" height="19" viewBox="0 0 20 19">
  <g fill="#2770A0" fill-rule="evenodd">
    <g fill-rule="nonzero">
      <path d="M15.5789474,-1.11022302e-14 L15.578,5.263 L20,5.26315789 L20,13.6842105 L15.789,13.6841579 L15.7894737,19 L4.21052632,19 L4.21,13.6841579 L0,13.6842105 L0,5.26315789 L3.999,5.263 L4,-1.11022302e-14 L15.5789474,-1.11022302e-14 Z M14.578,0.999 L4.999,0.999 L4.99881002,6.26296052 L1,6.263 L1,12.684 L5.20990099,12.6841454 L5.21,17.999 L14.789,17.999 L14.7889109,12.6841454 L19,12.684 L19,6.263 L14.57782,6.26296429 L14.578,0.999 Z"/>
      <path d="M6.77142575 13.7368421L13.2285742 13.7368421C13.4817055 13.7368421 13.6842105 13.502924 13.6842105 13.2105263 13.6842105 12.9181287 13.4817055 12.6842105 13.2285742 12.6842105L6.77142575 12.6842105C6.51829449 12.6842105 6.31578947 12.9181287 6.31578947 13.2105263 6.31578947 13.502924 6.51829449 13.7368421 6.77142575 13.7368421zM6.77142575 15.8421053L13.2285742 15.8421053C13.4817055 15.8421053 13.6842105 15.6081871 13.6842105 15.3157895 13.6842105 15.0233918 13.4817055 14.7894737 13.2285742 14.7894737L6.77142575 14.7894737C6.51829449 14.7894737 6.31578947 15.0233918 6.31578947 15.3157895 6.31578947 15.6081871 6.51829449 15.8421053 6.77142575 15.8421053z"/>
    </g>
    <rect width="2.105" height="1.053" x="15.789" y="7.368"/>
    <polygon fill-rule="nonzero" points="15.538 5.263 15.538 6.257 4 6.257 4 5.263"/>
    <path fill-rule="nonzero" d="M15.7963647,9.5 L15.7963647,13.1419812 L14.7963647,13.1419812 L14.7961871,10.494 L5.20518708,10.494 L5.20518708,13.1419812 L4.20518708,13.1419812 L4.20518708,9.5 L15.7963647,9.5 Z"/>
  </g>
</svg>
