<svg xmlns="http://www.w3.org/2000/svg" width="30" height="30" viewBox="0 0 30 30">
  <path d="M17.34375 16.7578125C17.66716 16.7578125 17.9296875 16.495285 17.9296875 16.171875 17.9296875 15.848465 17.66716 15.5859375 17.34375 15.5859375 17.02034 15.5859375 16.7578125 15.848465 16.7578125 16.171875 16.7578125 16.495285 17.02034 16.7578125 17.34375 16.7578125zM4.453125 16.7578125C4.77653502 16.7578125 5.0390625 16.495285 5.0390625 16.171875 5.0390625 15.848465 4.77653502 15.5859375 4.453125 15.5859375 4.12971498 15.5859375 3.8671875 15.848465 3.8671875 16.171875 3.8671875 16.495285 4.12971498 16.7578125 4.453125 16.7578125zM.5859375 7.3828125C.909576445 7.3828125 1.171875 7.12051395 1.171875 6.796875L1.171875 1.171875 6.796875 1.171875C7.12051395 1.171875 7.3828125.909576445 7.3828125.5859375 7.3828125.262298555 7.12051395 0 6.796875 0L.5859375 0C.262298555 0 0 .262298555 0 .5859375L0 6.796875C0 7.12051395.262298555 7.3828125.5859375 7.3828125zM7.3828125 29.4140625C7.3828125 29.0904236 7.12051395 28.828125 6.796875 28.828125L1.171875 28.828125 1.171875 23.203125C1.171875 22.8794861.909576445 22.6171875.5859375 22.6171875.262298555 22.6171875 0 22.8794861 0 23.203125L0 29.4140625C0 29.7377014.262298555 30 .5859375 30L6.796875 30C7.12051395 30 7.3828125 29.7377014 7.3828125 29.4140625zM29.4140625 22.6171875C29.0904236 22.6171875 28.828125 22.8794861 28.828125 23.203125L28.828125 28.828125 23.203125 28.828125C22.8794861 28.828125 22.6171875 29.0904236 22.6171875 29.4140625 22.6171875 29.7377014 22.8794861 30 23.203125 30L29.4140625 30C29.7377014 30 30 29.7377014 30 29.4140625L30 23.203125C30 22.8794861 29.7377014 22.6171875 29.4140625 22.6171875zM29.4140625 0L23.203125 0C22.8794861 0 22.6171875.262298555 22.6171875.5859375 22.6171875.909576445 22.8794861 1.171875 23.203125 1.171875L28.828125 1.171875 28.828125 6.796875C28.828125 7.12051395 29.0904236 7.3828125 29.4140625 7.3828125 29.7377014 7.3828125 30 7.12051395 30 6.796875L30 .5859375C30 .262298555 29.7377014 0 29.4140625 0z"/>
  <path d="M3.8671875 25.546875C3.8671875 25.8705139 4.12948605 26.1328125 4.453125 26.1328125L10.3125 26.1328125C10.6361389 26.1328125 10.8984375 25.8705139 10.8984375 25.546875L10.8984375 19.6875C10.8984375 19.3638611 10.6361389 19.1015625 10.3125 19.1015625L4.453125 19.1015625C4.12948605 19.1015625 3.8671875 19.3638611 3.8671875 19.6875L3.8671875 25.546875zM5.0390625 20.2734375L9.7265625 20.2734375 9.7265625 24.9609375 5.0390625 24.9609375 5.0390625 20.2734375zM10.3125 3.8671875L4.453125 3.8671875C4.12948605 3.8671875 3.8671875 4.12948605 3.8671875 4.453125L3.8671875 10.3125C3.8671875 10.6361389 4.12948605 10.8984375 4.453125 10.8984375L10.3125 10.8984375C10.6361389 10.8984375 10.8984375 10.6361389 10.8984375 10.3125L10.8984375 4.453125C10.8984375 4.12948605 10.6361389 3.8671875 10.3125 3.8671875zM9.7265625 9.7265625L5.0390625 9.7265625 5.0390625 5.0390625 9.7265625 5.0390625 9.7265625 9.7265625zM26.1328125 4.453125C26.1328125 4.12948605 25.8705139 3.8671875 25.546875 3.8671875L19.6875 3.8671875C19.3638611 3.8671875 19.1015625 4.12948605 19.1015625 4.453125L19.1015625 10.3125C19.1015625 10.6361389 19.3638611 10.8984375 19.6875 10.8984375L25.546875 10.8984375C25.8705139 10.8984375 26.1328125 10.6361389 26.1328125 10.3125L26.1328125 4.453125zM24.9609375 9.7265625L20.2734375 9.7265625 20.2734375 5.0390625 24.9609375 5.0390625 24.9609375 9.7265625zM26.1328125 25.546875L26.1328125 19.6875C26.1328125 19.3638611 25.8705139 19.1015625 25.546875 19.1015625L19.6875 19.1015625C19.3638611 19.1015625 19.1015625 19.3638611 19.1015625 19.6875L19.1015625 25.546875C19.1015625 25.8705139 19.3638611 26.1328125 19.6875 26.1328125L25.546875 26.1328125C25.8705139 26.1328125 26.1328125 25.8705139 26.1328125 25.546875zM24.9609375 24.9609375L20.2734375 24.9609375 20.2734375 20.2734375 24.9609375 20.2734375 24.9609375 24.9609375z"/>
  <path d="M7.96875 21.4453125L6.796875 21.4453125C6.47323605 21.4453125 6.2109375 21.7076111 6.2109375 22.03125L6.2109375 23.203125C6.2109375 23.5267639 6.47323605 23.7890625 6.796875 23.7890625L7.96875 23.7890625C8.29238895 23.7890625 8.5546875 23.5267639 8.5546875 23.203125L8.5546875 22.03125C8.5546875 21.7076111 8.29238895 21.4453125 7.96875 21.4453125zM6.796875 8.5546875L7.96875 8.5546875C8.29238895 8.5546875 8.5546875 8.29238895 8.5546875 7.96875L8.5546875 6.796875C8.5546875 6.47323605 8.29238895 6.2109375 7.96875 6.2109375L6.796875 6.2109375C6.47323605 6.2109375 6.2109375 6.47323605 6.2109375 6.796875L6.2109375 7.96875C6.2109375 8.29238895 6.47323605 8.5546875 6.796875 8.5546875zM22.03125 8.5546875L23.203125 8.5546875C23.5267639 8.5546875 23.7890625 8.29238895 23.7890625 7.96875L23.7890625 6.796875C23.7890625 6.47323605 23.5267639 6.2109375 23.203125 6.2109375L22.03125 6.2109375C21.7076111 6.2109375 21.4453125 6.47323605 21.4453125 6.796875L21.4453125 7.96875C21.4453125 8.29238895 21.7076111 8.5546875 22.03125 8.5546875zM22.03125 23.7890625L23.203125 23.7890625C23.5267639 23.7890625 23.7890625 23.5267639 23.7890625 23.203125L23.7890625 22.03125C23.7890625 21.7076111 23.5267639 21.4453125 23.203125 21.4453125L22.03125 21.4453125C21.7076111 21.4453125 21.4453125 21.7076111 21.4453125 22.03125L21.4453125 23.203125C21.4453125 23.5267639 21.7076111 23.7890625 22.03125 23.7890625zM6.2109375 16.171875C6.2109375 16.4955139 6.47323605 16.7578125 6.796875 16.7578125L14.4140625 16.7578125 14.4140625 19.6875C14.4140625 20.0111389 14.6763611 20.2734375 15 20.2734375 15.3236389 20.2734375 15.5859375 20.0111389 15.5859375 19.6875L15.5859375 16.171875C15.5859375 15.8482361 15.3236389 15.5859375 15 15.5859375L6.796875 15.5859375C6.47323605 15.5859375 6.2109375 15.8482361 6.2109375 16.171875zM10.3125 14.4140625C10.6361389 14.4140625 10.8984375 14.1517639 10.8984375 13.828125 10.8984375 13.5044861 10.6361389 13.2421875 10.3125 13.2421875L4.453125 13.2421875C4.12948605 13.2421875 3.8671875 13.5044861 3.8671875 13.828125 3.8671875 14.1517639 4.12948605 14.4140625 4.453125 14.4140625L10.3125 14.4140625zM12.65625 14.4140625L15 14.4140625C15.3236389 14.4140625 15.5859375 14.1517639 15.5859375 13.828125 15.5859375 13.5044861 15.3236389 13.2421875 15 13.2421875L12.65625 13.2421875C12.3326111 13.2421875 12.0703125 13.5044861 12.0703125 13.828125 12.0703125 14.1517639 12.3326111 14.4140625 12.65625 14.4140625zM12.65625 3.8671875C12.3326111 3.8671875 12.0703125 4.12948605 12.0703125 4.453125L12.0703125 10.3125C12.0703125 10.6361389 12.3326111 10.8984375 12.65625 10.8984375L16.7578125 10.8984375 16.7578125 13.828125C16.7578125 14.1517639 17.0201111 14.4140625 17.34375 14.4140625L19.6875 14.4140625C20.0111389 14.4140625 20.2734375 14.1517639 20.2734375 13.828125 20.2734375 13.5044861 20.0111389 13.2421875 19.6875 13.2421875L17.9296875 13.2421875 17.9296875 10.3125C17.9296875 9.98886105 17.6673889 9.7265625 17.34375 9.7265625L13.2421875 9.7265625 13.2421875 4.453125C13.2421875 4.12948605 12.9798889 3.8671875 12.65625 3.8671875zM25.546875 13.2421875L22.03125 13.2421875C21.7076111 13.2421875 21.4453125 13.5044861 21.4453125 13.828125 21.4453125 14.1517639 21.7076111 14.4140625 22.03125 14.4140625L25.546875 14.4140625C25.8705139 14.4140625 26.1328125 14.1517639 26.1328125 13.828125 26.1328125 13.5044861 25.8705139 13.2421875 25.546875 13.2421875zM25.546875 15.5859375L19.6875 15.5859375C19.3638611 15.5859375 19.1015625 15.8482361 19.1015625 16.171875 19.1015625 16.4955139 19.3638611 16.7578125 19.6875 16.7578125L25.546875 16.7578125C25.8705139 16.7578125 26.1328125 16.4955139 26.1328125 16.171875 26.1328125 15.8482361 25.8705139 15.5859375 25.546875 15.5859375zM15 21.4453125L12.65625 21.4453125C12.3326111 21.4453125 12.0703125 21.7076111 12.0703125 22.03125L12.0703125 25.546875C12.0703125 25.8705139 12.3326111 26.1328125 12.65625 26.1328125 12.9798889 26.1328125 13.2421875 25.8705139 13.2421875 25.546875L13.2421875 22.6171875 15 22.6171875C15.3236389 22.6171875 15.5859375 22.3548889 15.5859375 22.03125 15.5859375 21.7076111 15.3236389 21.4453125 15 21.4453125z"/>
  <path d="M16.7578125 24.9609375L15 24.9609375C14.6763611 24.9609375 14.4140625 25.2232361 14.4140625 25.546875 14.4140625 25.8705139 14.6763611 26.1328125 15 26.1328125L17.34375 26.1328125C17.6673889 26.1328125 17.9296875 25.8705139 17.9296875 25.546875L17.9296875 18.515625C17.9296875 18.1919861 17.6673889 17.9296875 17.34375 17.9296875 17.0201111 17.9296875 16.7578125 18.1919861 16.7578125 18.515625L16.7578125 24.9609375zM17.34375 8.5546875C17.6673889 8.5546875 17.9296875 8.29238895 17.9296875 7.96875L17.9296875 4.453125C17.9296875 4.12948605 17.6673889 3.8671875 17.34375 3.8671875 17.0201111 3.8671875 16.7578125 4.12948605 16.7578125 4.453125L16.7578125 7.3828125 15 7.3828125C14.6763611 7.3828125 14.4140625 7.64511105 14.4140625 7.96875 14.4140625 8.29238895 14.6763611 8.5546875 15 8.5546875L17.34375 8.5546875z"/>
</svg>
