<svg xmlns="http://www.w3.org/2000/svg" viewBox="0 0 64 64"><defs><style>.cls-1{fill:none;stroke:#2770a0;stroke-miterlimit:10;stroke-width:2px;stroke-dasharray:6 3;}.cls-2{fill:#2b7bb1;}.cls-3{fill:#2770a0;}</style></defs><g id="Final_drawing" data-name="Final drawing"><path class="cls-1" d="M57,17.48a28.89,28.89,0,1,1-4-5.3l.44.49"/><path class="cls-2" d="M61.75,15.17l-8.65,6a.33.33,0,0,1-.52-.33l1.32-7.34a.32.32,0,0,1,.39-.26l7.33,1.31A.33.33,0,0,1,61.75,15.17Z"/><path class="cls-3" d="M21.25,43l2-2.8a.7.7,0,0,1,1-.14c2.35,1.86,4.62,3.28,7.91,3.28,3.92,0,5-1.9,5-4.47,0-3.07-2.7-4.22-5.95-5.44-4.23-1.53-8.88-3.56-8.88-8.58,0-4.78,3.79-8.46,10.23-8.46a14.79,14.79,0,0,1,8.77,3,.63.63,0,0,1,.12.87L39.65,22.8a.7.7,0,0,1-1,.15c-1.8-1.33-3.53-2.4-5.91-2.4-3.74,0-5.08,1.87-5.08,4.14,0,2.82,2.76,3.76,6.14,5,4.29,1.6,9.07,3.37,9.07,9,0,4.84-3.87,8.89-10.91,8.89a17.9,17.9,0,0,1-10.58-3.7A.7.7,0,0,1,21.25,43Z"/><path class="cls-3" d="M34.75,18.58H31.27V13.2a.69.69,0,0,1,.69-.7h2.09a.7.7,0,0,1,.7.7Z"/><path class="cls-3" d="M34.05,51.5H32a.69.69,0,0,1-.69-.7V45.3h3.48v5.5A.7.7,0,0,1,34.05,51.5Z"/></g></svg>