<svg xmlns="http://www.w3.org/2000/svg" width="25" height="25" viewBox="0 0 25 25">
  <g fill="none" transform="translate(.1 .075)">
    <path fill="#FFF" d="M21.9778321,7.576 L2.00158779,7.576 C1.63444275,7.576 1.33441221,7.87206107 1.33441221,8.24317557 L1.33441221,21.9818015 C1.33441221,22.3489466 1.63047328,22.6489771 2.00158779,22.6489771 L21.9778321,22.6489771 C22.3449771,22.6489771 22.6450076,22.352916 22.6450076,21.9818015 L22.6450076,8.24317557 C22.6450076,7.87603053 22.3489466,7.576 21.9778321,7.576 Z"/>
    <path fill="#FFC10D" d="M2.00158779,6.24555725 L21.9778321,6.24555725 C22.3449771,6.24555725 22.6450076,5.94949618 22.6450076,5.57838168 L22.6450076,3.33203053 C22.6450076,2.9648855 22.3489466,2.66485496 21.9778321,2.66485496 L19.5932824,2.66485496 L19.5932824,3.43071756 C19.5932824,3.7978626 19.2972214,4.09789313 18.9261069,4.09789313 C18.5589618,4.09789313 18.2589313,3.80183206 18.2589313,3.43071756 L18.2589313,2.6608855 L16.9047939,2.6608855 L16.9047939,3.42674809 C16.9047939,3.79389313 16.6087328,4.09392366 16.2376183,4.09392366 C15.8665038,4.09392366 15.5704427,3.7978626 15.5704427,3.42674809 L15.5704427,2.6608855 L8.4089771,2.6608855 L8.4089771,3.42674809 C8.4089771,3.79389313 8.11291603,4.09392366 7.74180153,4.09392366 C7.37068702,4.09392366 7.07462595,3.7978626 7.07462595,3.42674809 L7.07462595,2.6608855 L5.72048855,2.6608855 L5.72048855,3.42674809 C5.72048855,3.79389313 5.42442748,4.09392366 5.05331298,4.09392366 C4.68616794,4.09392366 4.3861374,3.7978626 4.3861374,3.42674809 L4.3861374,2.6608855 L2.00158779,2.6608855 C1.63444275,2.6608855 1.33441221,2.95694656 1.33441221,3.32806107 L1.33441221,5.57441221 C1.33441221,5.94552672 1.63444275,6.24555725 2.00158779,6.24555725 Z"/>
    <path fill="#56ACE0" d="M17.4732824,15.8033588 C17.4732824,16.1705038 17.7694046,16.4705344 18.1365496,16.4705344 L21.306687,16.4705344 L21.306687,17.9273282 L19.4274809,17.9273282 C19.0484885,17.9273282 18.7405802,18.2352366 18.7405802,18.6142901 C18.7405802,18.9932824 19.0484885,19.3012519 19.4274809,19.3012519 L21.306687,19.3012519 L21.306687,21.3067481 L2.66479389,21.3067481 L2.66479389,15.1125496 L4.54003053,15.1125496 C4.9190229,15.1125496 5.2269313,14.8046412 5.2269313,14.4256489 C5.2269313,14.0466565 4.9190229,13.7387481 4.54003053,13.7387481 L2.66479389,13.7387481 L2.66479389,12.2464733 L5.8349313,12.2464733 C6.20207634,12.2464733 6.50210687,11.9504122 6.50210687,11.5792977 C6.50210687,11.2121527 6.2060458,10.9160305 5.8349313,10.9160305 L2.66479389,10.9160305 L2.66479389,8.90259542 L21.3105954,8.90259542 L21.3105954,15.1402137 L18.140458,15.1402137 C17.7694046,15.1361832 17.4732824,15.4362137 17.4732824,15.8033588 Z"/>
    <g fill="#194F82" transform="translate(9.527 9.771)">
      <path d="M2.36824427,4.66638168 C2.36036641,4.66638168 2.36036641,4.66638168 2.36427481,4.66638168 C1.79181679,4.61508397 1.34180153,4.13343511 1.34180153,3.54912977 C1.34180153,2.92934351 1.84714504,2.4279084 2.4630229,2.4279084 C3.07890076,2.4279084 3.58424427,2.93325191 3.58424427,3.54912977 C3.58424427,3.91627481 3.88030534,4.21630534 4.25141985,4.21630534 C4.61856489,4.21630534 4.91859542,3.92024427 4.91859542,3.54912977 C4.91859542,2.4279084 4.16061069,1.48042748 3.13019847,1.18827481 L3.13019847,0.675053435 C3.13019847,0.307908397 2.8341374,0.0078778626 2.4630229,0.0078778626 C2.0919084,0.0078778626 1.79584733,0.303938931 1.79584733,0.675053435 L1.79584733,1.18827481 C0.765435115,1.48042748 0.00745038168,2.42393893 0.00745038168,3.54912977 C0.00745038168,4.90326718 1.1088855,6.00470229 2.4630229,6.00470229 C2.47090076,6.00470229 2.47090076,6.00470229 2.46699237,6.00470229 C3.04335878,6.056 3.58424427,6.52977099 3.58424427,7.11407634 C3.58424427,7.73392366 3.07890076,8.23529771 2.4630229,8.23529771 C1.84317557,8.23529771 1.34180153,7.7299542 1.34180153,7.11407634 C1.34180153,6.7469313 1.04574046,6.44690076 0.674625954,6.44690076 C0.307480916,6.44690076 0.00745038168,6.74296183 0.00745038168,7.11407634 C0.00745038168,8.23529771 0.765435115,9.18277863 1.79584733,9.4749313 L1.79584733,9.98418321 C1.79584733,10.3513282 2.0919084,10.6513588 2.4630229,10.6513588 C2.8341374,10.6513588 3.13019847,10.3552977 3.13019847,9.98418321 L3.13019847,9.4749313 C4.16061069,9.18277863 4.91859542,8.23926718 4.91859542,7.11407634 C4.91853435,5.7639084 3.72238168,4.66638168 2.36824427,4.66638168 Z"/>
      <path d="M2.49041194 6.0236056L2.48391194 6.0236056C2.45161194 6.0301056 2.48391194 6.0236056 2.49041194 6.0236056zM2.37888128 4.68640967L2.38538128 4.68640967C2.42418128 4.67990967 2.39178128 4.68640967 2.37888128 4.68640967z"/>
    </g>
    <path fill="#000" d="M23.9754504,3.33593893 C23.9754504,2.23450382 23.0792672,1.33832061 21.9778321,1.33832061 L19.5932824,1.33832061 L19.5932824,0.667175573 C19.589374,0.300030534 19.2893435,0 18.9221985,0 C18.5550534,0 18.2550229,0.296061069 18.2550229,0.667175573 L18.2550229,1.33435115 L16.9008855,1.33435115 L16.9008855,0.667175573 C16.9008855,0.300030534 16.600855,0 16.2297405,0 C15.858626,0 15.5625649,0.296061069 15.5625649,0.667175573 L15.5625649,1.33435115 L8.4089771,1.33435115 L8.4089771,0.667175573 C8.4089771,0.300030534 8.11285496,0 7.74180153,0 C7.37068702,0 7.07462595,0.296061069 7.07462595,0.667175573 L7.07462595,1.33435115 L5.72048855,1.33435115 L5.72048855,0.667175573 C5.71651908,0.300030534 5.42045802,0 5.04934351,0 C4.67822901,0 4.38216794,0.296061069 4.38216794,0.667175573 L4.38216794,1.33435115 L2.00158779,1.33435115 C0.900152672,1.33435115 0.00396946565,2.23053435 0.00396946565,3.33593893 L0.00396946565,5.58229008 C0.00396946565,6.09154198 0.197435115,6.55743511 0.51719084,6.91273282 C0.197435115,7.26803053 0.00396946565,7.7338626 0.00396946565,8.24317557 L0.00396946565,21.9818015 C0.00396946565,23.0832366 0.900152672,23.9794198 2.00158779,23.9794198 L21.9778321,23.9794198 C23.0792672,23.9794198 23.9754504,23.0832366 23.9754504,21.9818015 L23.9754504,8.24317557 C23.9754504,7.73392366 23.7819847,7.26803053 23.462229,6.91273282 C23.7780763,6.55743511 23.9754504,6.09160305 23.9754504,5.58229008 L23.9754504,3.33593893 C23.9754504,3.33593893 23.9754504,3.33593893 23.9754504,3.33593893 Z M22.6450076,21.9778321 C22.6450076,22.3449771 22.3489466,22.6450076 21.9778321,22.6450076 L2.00158779,22.6450076 C1.63444275,22.6450076 1.33441221,22.3489466 1.33441221,21.9778321 L1.33441221,8.23920611 C1.33441221,7.87206107 1.63047328,7.57203053 2.00158779,7.57203053 L21.9778321,7.57203053 C22.3449771,7.57203053 22.6450076,7.8680916 22.6450076,8.23920611 L22.6450076,21.9778321 L22.6450076,21.9778321 Z M22.6450076,5.58229008 C22.6450076,5.94943511 22.3489466,6.24946565 21.9778321,6.24946565 L2.00158779,6.24946565 C1.63444275,6.24946565 1.33441221,5.95340458 1.33441221,5.58229008 L1.33441221,3.33593893 C1.33441221,2.96879389 1.63047328,2.66876336 2.00158779,2.66876336 L4.3900458,2.66876336 L4.3900458,3.43462595 C4.3900458,3.80177099 4.68610687,4.10180153 5.05722137,4.10180153 C5.42436641,4.10180153 5.72439695,3.80574046 5.72439695,3.43462595 L5.72439695,2.66479389 L7.07853435,2.66479389 L7.07853435,3.43065649 C7.07853435,3.79780153 7.37459542,4.09783206 7.74570992,4.09783206 C8.11682443,4.09783206 8.4128855,3.80177099 8.4128855,3.43065649 L8.4128855,2.66479389 L15.5822901,2.66479389 L15.5822901,3.43065649 C15.5822901,3.79780153 15.8783511,4.09783206 16.2494656,4.09783206 C16.6205802,4.09783206 16.9166412,3.80177099 16.9166412,3.43065649 L16.9166412,2.66479389 L18.2707786,2.66479389 L18.2707786,3.43065649 C18.2707786,3.79780153 18.5668397,4.09783206 18.9379542,4.09783206 C19.3050992,4.09783206 19.6051298,3.80177099 19.6051298,3.43065649 L19.6051298,2.66479389 L21.9896183,2.66479389 C22.3567634,2.66479389 22.6567941,2.96085496 22.6567941,3.33196947 L22.6567941,5.58229008 C22.6567941,5.58229008 22.6450076,5.58229008 22.6450076,5.58229008 Z"/>
    <path fill="#194F82" d="M23.9754504,3.33593893 C23.9754504,2.23450382 23.0792672,1.33832061 21.9778321,1.33832061 L19.5932824,1.33832061 L19.5932824,0.667175573 C19.589374,0.300030534 19.2893435,0 18.9221985,0 C18.5550534,0 18.2550229,0.296061069 18.2550229,0.667175573 L18.2550229,1.33435115 L16.9008855,1.33435115 L16.9008855,0.667175573 C16.9008855,0.300030534 16.600855,0 16.2297405,0 C15.858626,0 15.5625649,0.296061069 15.5625649,0.667175573 L15.5625649,1.33435115 L8.4089771,1.33435115 L8.4089771,0.667175573 C8.4089771,0.300030534 8.11285496,0 7.74180153,0 C7.37068702,0 7.07462595,0.296061069 7.07462595,0.667175573 L7.07462595,1.33435115 L5.72048855,1.33435115 L5.72048855,0.667175573 C5.71651908,0.300030534 5.42045802,0 5.04934351,0 C4.67822901,0 4.38216794,0.296061069 4.38216794,0.667175573 L4.38216794,1.33435115 L2.00158779,1.33435115 C0.900152672,1.33435115 0.00396946565,2.23053435 0.00396946565,3.33593893 L0.00396946565,5.58229008 C0.00396946565,6.09154198 0.197435115,6.55743511 0.51719084,6.91273282 C0.197435115,7.26803053 0.00396946565,7.7338626 0.00396946565,8.24317557 L0.00396946565,21.9818015 C0.00396946565,23.0832366 0.900152672,23.9794198 2.00158779,23.9794198 L21.9778321,23.9794198 C23.0792672,23.9794198 23.9754504,23.0832366 23.9754504,21.9818015 L23.9754504,8.24317557 C23.9754504,7.73392366 23.7819847,7.26803053 23.462229,6.91273282 C23.7780763,6.55743511 23.9754504,6.09160305 23.9754504,5.58229008 L23.9754504,3.33593893 C23.9754504,3.33593893 23.9754504,3.33593893 23.9754504,3.33593893 Z M22.6450076,21.9778321 C22.6450076,22.3449771 22.3489466,22.6450076 21.9778321,22.6450076 L2.00158779,22.6450076 C1.63444275,22.6450076 1.33441221,22.3489466 1.33441221,21.9778321 L1.33441221,8.23920611 C1.33441221,7.87206107 1.63047328,7.57203053 2.00158779,7.57203053 L21.9778321,7.57203053 C22.3449771,7.57203053 22.6450076,7.8680916 22.6450076,8.23920611 L22.6450076,21.9778321 L22.6450076,21.9778321 Z M1.33441221,3.33593893 C1.33441221,2.96879389 1.63047328,2.66876336 2.00158779,2.66876336 L4.3900458,2.66876336 L4.3900458,3.43462595 C4.3900458,3.80177099 4.68610687,4.10180153 5.05722137,4.10180153 C5.42833588,4.10180153 5.72439695,3.80574046 5.72439695,3.43462595 L5.72439695,2.66479389 L7.07853435,2.66479389 L7.07853435,3.43065649 C7.07853435,3.79780153 7.37459542,4.09783206 7.74570992,4.09783206 C8.11682443,4.09783206 8.4128855,3.80177099 8.4128855,3.43065649 L8.4128855,2.66479389 L15.5822901,2.66479389 L15.5822901,3.43065649 C15.5822901,3.79780153 15.8783511,4.09783206 16.2494656,4.09783206 C16.6205802,4.09783206 16.9166412,3.80177099 16.9166412,3.43065649 L16.9166412,2.66479389 L18.2707786,2.66479389 L18.2707786,3.43065649 C18.2707786,3.79780153 18.5668397,4.09783206 18.9379542,4.09783206 C19.3050992,4.09783206 19.6051298,3.80177099 19.6051298,3.43065649 L19.6051298,2.66479389 L21.9896183,2.66479389 C22.3567634,2.66479389 22.6567939,2.96085496 22.6567939,3.33196947 L22.6567939,5.57832061 C22.6567939,5.94546565 22.3607328,6.24549618 21.9896183,6.24549618 L2.00158779,6.24549618 C1.63444275,6.24549618 1.33441221,5.94943511 1.33441221,5.57832061 L1.33441221,3.33593893 Z"/>
  </g>
</svg>
