<svg xmlns="http://www.w3.org/2000/svg" viewBox="0 0 64 64"><defs><style>.cls-1,.cls-2,.cls-4{fill:none;stroke-miterlimit:10;}.cls-1,.cls-2{stroke:#2770a0;}.cls-1{stroke-width:2px;}.cls-2{stroke-width:1.5px;}.cls-3{fill:#2770a0;}.cls-4{stroke:#2b7bb1;stroke-linecap:round;}</style></defs><g id="Final_drawing" data-name="Final drawing"><path class="cls-1" d="M30.47,36.5V30.25a55.88,55.88,0,0,1,.76-10.87,15.59,15.59,0,0,1,1.3-3.55,14,14,0,0,0,1.63-5.62c0-5.66-5-9.28-11-8.64A9.76,9.76,0,0,0,14.54,10c-.28,2.42,1,4.6,2,6.75a18.46,18.46,0,0,1,1.65,7.38V36.5"/><line class="cls-2" x1="18.24" y1="29.95" x2="29.91" y2="29.95"/><path class="cls-3" d="M63,46.37a9.14,9.14,0,0,1-2.43-5.82,3.3,3.3,0,0,0-3.32-3.36H57.1a9.09,9.09,0,0,1-5.73-2.4,3.32,3.32,0,0,0-4.79,0,9.09,9.09,0,0,1-5.72,2.4h-.18a3.21,3.21,0,0,0-1.89.59,4.09,4.09,0,0,1,.75.31,7.45,7.45,0,0,1,.71.43,3.62,3.62,0,0,1,.69.66,11.07,11.07,0,0,0,7.08-3,1.36,1.36,0,0,1,1-.41,1.32,1.32,0,0,1,1,.41,11.05,11.05,0,0,0,7.17,3h.17a1.3,1.3,0,0,1,1.32,1.34,11,11,0,0,0,3,7.28,1.33,1.33,0,0,1,.41.95,1.31,1.31,0,0,1-.41.94,11,11,0,0,0-3,7.29,1.32,1.32,0,0,1-.37.95,1.34,1.34,0,0,1-1,.39H57.1a11.09,11.09,0,0,0-7.17,3,1.28,1.28,0,0,1-1,.41,1.32,1.32,0,0,1-1-.41,11.09,11.09,0,0,0-7.16-3h-.18a1.3,1.3,0,0,1-.94-.39,1.33,1.33,0,0,1-.38-.95,9,9,0,0,0-.29-2.24c-.71,0-1.41-.08-2.12-.13A7.31,7.31,0,0,1,37.36,57a3.31,3.31,0,0,0,3.32,3.37h.18a9.08,9.08,0,0,1,5.72,2.39,3.32,3.32,0,0,0,4.79,0,9.08,9.08,0,0,1,5.73-2.39h.17A3.3,3.3,0,0,0,60.59,57,9.14,9.14,0,0,1,63,51.14,3.28,3.28,0,0,0,63,46.37Z"/><path class="cls-3" d="M49,39.46a9.29,9.29,0,0,0-6.16,2.31,5.79,5.79,0,0,1,.67,1.42,7.8,7.8,0,1,1-.38,10.74,4.33,4.33,0,0,1-1.44.63A9.33,9.33,0,1,0,49,39.46Z"/><path class="cls-1" d="M42.23,43.5V40.64c0-2.28-2.44-4.14-5.42-4.14h-26c-3,0-5.42,1.86-5.42,4.14V43.5"/><path class="cls-3" d="M43.87,44.3a1.79,1.79,0,0,1,1.79,1.79v5.25a1.79,1.79,0,0,1-1.79,1.79H3.79A1.79,1.79,0,0,1,2,51.34V46.09A1.79,1.79,0,0,1,3.79,44.3H43.87m0-2H3.79A3.79,3.79,0,0,0,0,46.09v5.25a3.79,3.79,0,0,0,3.79,3.79H43.87a3.8,3.8,0,0,0,3.79-3.79V46.09a3.8,3.8,0,0,0-3.79-3.79Z"/><path class="cls-4" d="M27.79,5.85c2,1.17,2.73,3.65,1.7,6.31"/></g></svg>