<svg xmlns="http://www.w3.org/2000/svg" viewBox="0 0 20 20"><defs><style>.cls-1,.cls-2{fill:none;stroke:#2770a0;stroke-miterlimit:10;}.cls-2{stroke-linecap:round;}</style></defs><g id="Final_drawing" data-name="Final drawing"><path class="cls-1" d="M18.27,8.12h.22a1,1,0,0,1,1,1v8.06a2.3,2.3,0,0,1-2.29,2.3h0a2.3,2.3,0,0,1-2.3-2.3V11.31a1,1,0,0,0-1-1H8.25L6.51,6.7a.91.91,0,0,0-.78-.43H.56V18.39a1,1,0,0,0,1,1.06H16.93"/><path class="cls-1" d="M3.23,5.41V1.5A.93.93,0,0,1,4.16.57h8.66a1.15,1.15,0,0,1,.86.4l3.24,3.61a1.45,1.45,0,0,1,.36,1v10a1,1,0,0,1-1,1h-.58"/><path class="cls-1" d="M17.13,5.32h-3a.93.93,0,0,1-.93-.93V.91"/><line class="cls-2" x1="5.13" y1="13.13" x2="5.13" y2="17.2"/><line class="cls-2" x1="5.13" y1="17.37" x2="7.36" y2="15.28"/><line class="cls-2" x1="5.13" y1="17.37" x2="2.89" y2="15.28"/></g></svg>