<svg xmlns="http://www.w3.org/2000/svg" viewBox="0 0 20 20"><defs><style>.cls-1{fill:#2770a0;}</style></defs><g id="Final_drawing" data-name="Final drawing"><polygon class="cls-1" points="18.5 20 11.99 20 11.99 19 17.5 19 17.5 1 2.5 1 2.5 19 7.85 19 7.85 20 1.5 20 1.5 0 18.5 0 18.5 20"/><path class="cls-1" d="M4.77,4.86H6.08c1,0,1.72.35,1.72,1.35S7.11,7.63,6.11,7.63H5.35V9.46H4.77ZM6,7.16c.81,0,1.19-.29,1.19-1S6.81,5.33,6,5.33H5.35V7.16Z"/><path class="cls-1" d="M8.73,4.86H9.88a2,2,0,0,1,2.17,2.28A2,2,0,0,1,9.9,9.46H8.73ZM9.83,9c1.08,0,1.61-.68,1.61-1.84s-.53-1.8-1.61-1.8H9.31V9Z"/><path class="cls-1" d="M13,4.86h2.65v.49H13.62V6.9h1.75v.5H13.62V9.46H13Z"/><path class="cls-1" d="M14,15.31a.51.51,0,0,0-.71,0l-2.46,2.43c-.19.19-.36.13-.36-.15V11.81a.5.5,0,0,0-.5-.5h0a.5.5,0,0,0-.5.5V17.6c0,.27-.15.34-.35.14L6.72,15.32A.5.5,0,1,0,6,16l3.57,3.62a.5.5,0,0,0,.71,0L14,16A.5.5,0,0,0,14,15.31Z"/></g></svg>