<svg xmlns="http://www.w3.org/2000/svg" viewBox="0 0 20 20"><defs><style>.cls-1{fill:#2770a0;}</style></defs><g id="Final_drawing" data-name="Final drawing"><path class="cls-1" d="M18.36,19.89a2.58,2.58,0,0,1-1.26.19H1.32A1.36,1.36,0,0,1,0,18.69V6.42A.46.46,0,0,1,.47,6H5.62a1.24,1.24,0,0,1,1.06.58l0,0,1.69,3.55s0,0,0,0H14a1.33,1.33,0,0,1,1.32,1.33v5.88a2.1,2.1,0,0,0,1.79,2.11,2,2,0,0,0,2.3-2V9.18a.7.7,0,0,0-.7-.7h-.2V7.88a0,0,0,0,1,0,0h.18A1.32,1.32,0,0,1,20,9.18v8.13A2.77,2.77,0,0,1,18.36,19.89ZM.65,6.58l0,0V18.69a.74.74,0,0,0,.69.78H15.57s0,0,0,0a2.64,2.64,0,0,1-.91-2v-6a.7.7,0,0,0-.7-.7H8L6.14,6.86a.64.64,0,0,0-.52-.28Z"/><path class="cls-1" d="M16.55,18.11H16v-.63h.6a.67.67,0,0,0,.67-.68V5.47a1.18,1.18,0,0,0-.28-.78L13.6,1A.83.83,0,0,0,13,.67H4.05a.64.64,0,0,0-.64.64v4H2.78v-4A1.27,1.27,0,0,1,4.05,0H13a1.52,1.52,0,0,1,1.11.51l3.34,3.72a1.83,1.83,0,0,1,.44,1.2V16.8A1.31,1.31,0,0,1,16.55,18.11Z"/><path class="cls-1" d="M17.38,5.55H14.29A1.27,1.27,0,0,1,13,4.28V.7h.62V4.28a.65.65,0,0,0,.65.64h3.09Z"/><path class="cls-1" d="M11.41,4.69H8.36a.31.31,0,1,1,0-.62h3.05a.31.31,0,1,1,0,.62Z"/><path class="cls-1" d="M15.65,7.55H8.36a.32.32,0,0,1,0-.63h7.29a.32.32,0,1,1,0,.63Z"/><path class="cls-1" d="M7.37,15.16a.47.47,0,0,0-.66,0L5.2,16.54V13.27a.47.47,0,1,0-.94,0v3.27l-1.5-1.41a.48.48,0,0,0-.67,0,.46.46,0,0,0,0,.66L4.41,18h0a.42.42,0,0,0,.14.09h0a.45.45,0,0,0,.16,0h0a.41.41,0,0,0,.16,0h0A.51.51,0,0,0,5,18h0l2.3-2.15A.46.46,0,0,0,7.37,15.16Z"/></g></svg>