<?xml version="1.0" encoding="UTF-8"?>
<svg width="12px" height="13px" viewBox="0 0 12 13" version="1.1" xmlns="http://www.w3.org/2000/svg" xmlns:xlink="http://www.w3.org/1999/xlink">
    <title>SVGCombined Shape</title>
    <g id="Page-1" stroke="none" stroke-width="1" fill="none" fill-rule="evenodd">
        <path d="M6.11713533,0.880826923 C6.89946911,0.880826923 7.53367595,1.51503376 7.53367595,2.29736754 L7.53297287,5.12982692 L10.3667572,5.13044877 C11.149091,5.13044877 11.7832978,5.76465561 11.7832978,6.54698939 C11.7832978,7.32932317 11.149091,7.96353001 10.3667572,7.96353001 L7.53297287,7.96282692 L7.53367595,10.7966112 C7.53367595,11.578945 6.89946911,12.2131519 6.11713533,12.2131519 C5.33480155,12.2131519 4.70059472,11.578945 4.70059472,10.7966112 L4.69997287,7.96282692 L1.86751348,7.96353001 C1.0851797,7.96353001 0.450972867,7.32932317 0.450972867,6.54698939 C0.450972867,5.76465561 1.0851797,5.13044877 1.86751348,5.13044877 L4.69997287,5.12982692 L4.70059472,2.29736754 C4.70059472,1.51503376 5.33480155,0.880826923 6.11713533,0.880826923 Z" id="Combined-Shape" fill="#515151" fill-rule="nonzero"></path>
    </g>
</svg>