<svg xmlns="http://www.w3.org/2000/svg" width="12" height="13" viewBox="0 0 12 13">
  <path fill="#2770A0" d="M5.72383753,0.880826923 C6.50617131,0.880826923 7.14037815,1.51503376 7.14037815,2.29736754 L7.13967507,5.12982692 L9.97345938,5.13044877 C10.7557932,5.13044877 11.39,5.76465561 11.39,6.54698939 C11.39,7.32932317 10.7557932,7.96353001 9.97345938,7.96353001 L7.13967507,7.96282692 L7.14037815,10.7966112 C7.14037815,11.578945 6.50617131,12.2131519 5.72383753,12.2131519 C4.94150375,12.2131519 4.30729692,11.578945 4.30729692,10.7966112 L4.30667507,7.96282692 L1.47421568,7.96353001 C0.691881903,7.96353001 0.0576750668,7.32932317 0.0576750668,6.54698939 C0.0576750668,5.76465561 0.691881903,5.13044877 1.47421568,5.13044877 L4.30667507,5.12982692 L4.30729692,2.29736754 C4.30729692,1.51503376 4.94150375,0.880826923 5.72383753,0.880826923 Z"/>
</svg>
