<svg xmlns="http://www.w3.org/2000/svg" width="21" height="20" viewBox="0 0 21 20">
  <path fill="#2770A0" fill-rule="evenodd" d="M10.472548,2.30926389e-14 C15.9953955,2.30926389e-14 20.472548,4.4771525 20.472548,10 C20.472548,15.5228475 15.9953955,20 10.472548,20 C4.94970051,20 0.47254801,15.5228475 0.47254801,10 C0.47254801,4.4771525 4.94970051,2.30926389e-14 10.472548,2.30926389e-14 Z M14.8284021,6.01663036 L8.80635776,11.8245821 L6.49919246,9.20635453 C6.19793902,8.87348902 5.68441373,8.84962861 5.35320401,9.15562213 L4.15347494,10.2657879 C3.99309968,10.4139067 3.8990992,10.615992 3.88902811,10.8355586 C3.87895701,11.0551252 3.95340365,11.265197 4.09973431,11.4266862 L8.07863322,15.9012325 C8.21053238,16.0471495 8.38513134,16.1381406 8.57726727,16.1617319 C8.60088174,16.1646314 8.62516645,16.1665092 8.6495847,16.1672993 C8.86934894,16.1744107 9.0781286,16.0935081 9.23749472,15.9402973 L17.0621096,8.3940453 C17.2191287,8.24220236 17.3090359,8.0379585 17.3147467,7.81840854 C17.3199208,7.59879268 17.2414502,7.39043486 17.0921022,7.23133521 L15.9751817,6.04317155 C15.6672234,5.71610688 15.1533693,5.70379826 14.8284021,6.01663036 Z"/>
</svg>
