<svg xmlns="http://www.w3.org/2000/svg" width="21" height="21" viewBox="0 0 21 21">
  <path fill="#2770A0" d="M20.3846236,12.879088 C20.3846236,17.0248164 17.075062,20.3976124 13.0076363,20.3976124 L5.711374,20.3976124 C5.27864159,20.3976124 4.92796871,20.0402554 4.92796871,19.5992204 L4.92796871,19.3330605 C4.92796871,18.8919816 5.27859845,18.5346245 5.711374,18.5346245 L13.0076363,18.5346245 C16.0672658,18.5346245 18.5567067,15.9974205 18.5567067,12.879088 C18.5567067,9.76075553 16.0672658,7.22355145 13.0076363,7.22355145 L3.50495646,7.22355145 L6.8229311,10.6051857 C7.17929896,10.9682591 7.17929896,11.559325 6.8229311,11.9223984 C6.47713347,12.2745667 5.87532047,12.2740391 5.53029943,11.9223984 L0.652374085,6.95075178 C0.479755705,6.77482149 0.384623606,6.54089269 0.384623606,6.29201355 C0.384623606,6.0433103 0.479755705,5.80924959 0.652374085,5.63340724 L5.53055829,0.661540808 C5.87557934,0.309636261 6.47791005,0.309636261 6.82297424,0.661540808 C7.1793421,1.02452619 7.1793421,1.6156801 6.82297424,1.97862151 L3.5049996,5.36051962 L13.0076363,5.36051962 C17.075062,5.36051962 20.3846236,8.73344753 20.3846236,12.879088 Z"/>
</svg>
