<svg xmlns="http://www.w3.org/2000/svg" width="25" height="24" viewBox="0 0 25 24">
  <g fill="none" transform="translate(.5 .442)">
    <rect width="9.818" height="1.998" x="7.077" y="10.145" fill="#56ACE0"/>
    <path fill="#FFC10D" d="M11.988458,18.5739847 C13.9308092,18.5739847 15.5099847,16.9948092 15.5099847,15.052458 L15.5099847,13.4732824 L8.46296183,13.4732824 L8.46296183,15.052458 C8.46296183,16.9909008 10.0461069,18.5739847 11.988458,18.5739847 Z"/>
    <g fill="#194F82">
      <circle cx="11.988" cy="16.024" r="1"/>
      <path d="M11.6291908,0.0111145038 C5.41520611,0.101923664 0.318534351,5.19468702 0.0145343511,11.4007328 C-0.139419847,14.5669008 0.934412214,17.6107481 3.03859542,19.9716031 C3.28335878,20.2440305 3.70577099,20.2676641 3.97819847,20.0229008 C4.25062595,19.7781374 4.27425954,19.3557252 4.02949618,19.0832977 C2.1621374,16.9869924 1.20677863,14.2787176 1.34491603,11.4638779 C1.61734351,5.94870229 6.14552672,1.36128244 11.6725496,1.34149618 C19.7578015,1.31780153 22.7147481,8.2029313 22.6437252,11.992855 C22.5647634,16.1460153 20.2039084,19.9517557 16.4258321,21.680916 C15.5967634,22.0638779 14.6690076,21.9967634 13.8952672,21.4953893 C13.2952061,21.1085191 12.8846412,20.5123664 12.730626,19.8372519 C15.0559389,19.4819542 16.8443359,17.4763969 16.8443359,15.052458 L16.8443359,13.4732824 L17.5667786,13.4732824 C17.9339237,13.4732824 18.2339542,13.1772214 18.2339542,12.8061069 L18.2339542,9.4780458 C18.2339542,9.11090076 17.9378321,8.81087023 17.5667786,8.81087023 L15.5888855,8.81087023 L15.5888855,4.74858015 C15.5888855,4.38143511 15.2928244,4.08140458 14.9217099,4.08140458 C14.5545649,4.08140458 14.2545344,4.37746565 14.2545344,4.74858015 L14.2545344,8.8109313 L9.72238168,8.8109313 L9.72238168,4.74858015 C9.72238168,4.38143511 9.42632061,4.08140458 9.05520611,4.08140458 C8.6840916,4.08140458 8.38803053,4.37746565 8.38803053,4.74858015 L8.38803053,8.8109313 L6.4101374,8.8109313 C6.04299237,8.8109313 5.74296183,9.10699237 5.74296183,9.47810687 L5.74296183,12.8061679 C5.74296183,13.173313 6.0390229,13.4733435 6.4101374,13.4733435 L7.13258015,13.4733435 L7.13258015,15.0525191 C7.13258015,17.5199389 8.9880916,19.5609771 11.3765496,19.8610076 C11.550229,20.9901069 12.1898015,21.9968244 13.1728244,22.6205802 C14.8111756,23.6509924 16.4495878,23.1338015 16.9746565,22.8930076 C21.2344427,20.946687 23.8715725,16.6671756 23.9781985,11.992916 C24.0926412,6.74222901 19.7341679,-0.0994198473 11.6291908,0.0111145038 Z M7.07725191,10.1452824 L16.8956336,10.1452824 L16.8956336,12.1389313 L7.07725191,12.1389313 L7.07725191,10.1452824 Z M8.46296183,13.4694351 L15.5099237,13.4694351 L15.5099237,15.0486107 C15.5099237,16.9909618 13.9307481,18.5701374 11.9883969,18.5701374 C10.0460458,18.5701374 8.46687023,16.9909618 8.46687023,15.0486107 L8.46687023,13.4694351 L8.46296183,13.4694351 Z"/>
    </g>
  </g>
</svg>
