<svg xmlns="http://www.w3.org/2000/svg" width="57" height="65" viewBox="0 0 57 65">
  <g fill="#2770A0" transform="translate(0 .5)">
    <path d="M20.7424115 7.52780945C21.188143 7.52780945 21.3952564 8.00562897 21.3952564 8.45136044 21.3952564 8.94551566 21.1560549 9.39066361 20.7424115 9.39066361L18.4174901 9.39066361 18.4174901 18.5147403C18.4174901 18.9447194 17.8918304 19.1675852 17.3825064 19.1675852 16.8568465 19.1675852 16.3475225 18.9447194 16.3475225 18.5147403L16.3475225 9.39066361 14.0062655 9.39066361C13.592622 9.39066361 13.3540039 8.96126784 13.3540039 8.45136044 13.3540039 8.00562897 13.560534 7.52780945 14.0062655 7.52780945L20.7424115 7.52780945zM20.7896685 18.3076269C20.7896685 18.2761223 20.8054206 18.2125297 20.8217563 18.1489372L23.8946198 8.1328142C24.0381408 7.65499469 24.6268097 7.43212887 25.2160619 7.43212887 25.8216501 7.43212887 26.410319 7.65499469 26.5538399 8.1328142L29.6272866 18.1489372C29.643039 18.2125297 29.6587913 18.2597866 29.6587913 18.3076269 29.6587913 18.8011986 28.9102657 19.1675852 28.3531014 19.1675852 28.0030505 19.1675852 27.7323444 19.0561523 27.6524162 18.7539418L27.0474116 16.6361338 23.401048 16.6361338 22.7960434 18.7539418C22.7161152 19.0561523 22.4454091 19.1675852 22.0953582 19.1675852 21.5381939 19.1675852 20.7896685 18.8175343 20.7896685 18.3076269zM26.6016801 15.0118976L25.2160619 10.1234368 23.8310273 15.0118976 26.6016801 15.0118976zM34.2602104 14.8205365L31.935289 18.9126315C31.8244395 19.1039927 31.617326 19.2475135 31.3623723 19.2475135 30.8052079 19.2475135 30.0088422 18.7854463 30.0088422 18.2125297 30.0088422 18.1005135 30.0566824 17.9733282 30.1360273 17.8298074L32.8909279 13.3398213 30.231708 8.86558741C30.1360273 8.70631414 30.0881871 8.56279335 30.0881871 8.4192724 30.0881871 7.86210817 30.8209603 7.44846458 31.4102125 7.44846458 31.7287589 7.44846458 31.9516246 7.62349003 32.0945621 7.89419606L34.2602104 11.79493 36.4258586 7.89419606C36.5851317 7.62290665 36.7922452 7.44846458 37.1265438 7.44846458 37.7152126 7.44846458 38.4479859 7.86210817 38.4479859 8.4192724 38.4479859 8.56279335 38.4001456 8.70631414 38.3050484 8.86558741L35.6458285 13.3398213 38.4001456 17.8298074C38.4800739 17.9733282 38.5115785 18.1005135 38.5115785 18.2125297 38.5115785 18.7854463 37.7315484 19.2475135 37.1580484 19.2475135 36.9036779 19.2475135 36.6959812 19.1039927 36.600884 18.9126315L34.2602104 14.8205365zM45.9921834 18.0710207C44.2489127 18.0277293 42.9375 17.0911568 42.9375 16.2844585 42.9375 15.8811093 43.2980857 15.2755578 43.7447262 15.2755578 44.2922041 15.2755578 44.7245901 16.2121302 45.9921834 16.3562589L45.9921834 13.4889956C44.6812988 12.9990637 43.1972484 12.4368033 43.1972484 10.5926953 43.1972484 8.76284176 44.5514245 7.96986994 45.9921834 7.78297787L45.9921834 7.37910068C45.9921834 7.1922086 46.2086404 7.019043 46.4821153 7.019043 46.7276093 7.019043 46.9720473 7.1922086 46.9720473 7.37910068L46.9720473 7.75394092C47.9086198 7.78297787 49.4359615 8.05645274 49.4359615 8.89218798 49.4359615 9.22373675 49.205778 9.88630639 48.6725547 9.88630639 48.2692055 9.88630639 47.9376568 9.42541126 46.9720473 9.35361088L46.9720473 11.8893255C48.2544231 12.3650029 49.6957099 13.013318 49.6957099 14.9730458 49.6957099 16.7453536 48.5859719 17.7685088 46.9720473 18.0277293L46.9720473 18.4743698C46.9720473 18.6617899 46.7270813 18.8344276 46.4821153 18.8344276 46.2086404 18.8344276 45.9921834 18.6617899 45.9921834 18.4743698L45.9921834 18.0710207zM46.1078031 11.5725592L46.1078031 9.39637444C45.3871597 9.51199406 44.9553017 9.85779735 44.9553017 10.4052751 44.9553017 11.0393359 45.4447056 11.3133387 46.1078031 11.5725592zM46.8569556 13.8347988L46.8569556 16.3420043C47.4910162 16.2121302 47.9376568 15.837818 47.9376568 15.1604659 47.9376568 14.4540769 47.4767618 14.1082738 46.8569556 13.8347988zM37.9916992 27.3896485L13.8383789 27.3896485C13.3203125 27.3896485 12.9008789 27.8095703 12.9008789 28.3271485 12.9008789 28.8452149 13.3203125 29.2646485 13.8383789 29.2646485L37.9916992 29.2646485C38.5092774 29.2646485 38.9291992 28.8452149 38.9291992 28.3271485 38.9291992 27.8095703 38.5097656 27.3896485 37.9916992 27.3896485zM37.9916992 35.1889649L13.8383789 35.1889649C13.3203125 35.1889649 12.9008789 35.6083985 12.9008789 36.1264649 12.9008789 36.644043 13.3203125 37.0639649 13.8383789 37.0639649L37.9916992 37.0639649C38.5092774 37.0639649 38.9291992 36.644043 38.9291992 36.1264649 38.9291992 35.6083985 38.5097656 35.1889649 37.9916992 35.1889649zM37.9916992 42.987793L13.8383789 42.987793C13.3203125 42.987793 12.9008789 43.4077149 12.9008789 43.925293 12.9008789 44.4433594 13.3203125 44.862793 13.8383789 44.862793L37.9916992 44.862793C38.5092774 44.862793 38.9291992 44.4433594 38.9291992 43.925293 38.9291992 43.4077149 38.5097656 42.987793 37.9916992 42.987793zM37.9916992 50.7871094L13.8383789 50.7871094C13.3203125 50.7871094 12.9008789 51.206543 12.9008789 51.7246094 12.9008789 52.2426757 13.3203125 52.6621094 13.8383789 52.6621094L37.9916992 52.6621094C38.5092774 52.6621094 38.9291992 52.2426757 38.9291992 51.7246094 38.9291992 51.206543 38.5097656 50.7871094 37.9916992 50.7871094zM48.5053711 27.3896485L42.4282226 27.3896485C41.9101562 27.3896485 41.4907226 27.8095703 41.4907226 28.3271485 41.4907226 28.8452149 41.9101562 29.2646485 42.4282226 29.2646485L48.5053711 29.2646485C49.0229492 29.2646485 49.4428711 28.8452149 49.4428711 28.3271485 49.4423827 27.8095703 49.0229492 27.3896485 48.5053711 27.3896485zM48.5053711 35.1889649L42.4282226 35.1889649C41.9101562 35.1889649 41.4907226 35.6083985 41.4907226 36.1264649 41.4907226 36.644043 41.9101562 37.0639649 42.4282226 37.0639649L48.5053711 37.0639649C49.0229492 37.0639649 49.4428711 36.644043 49.4428711 36.1264649 49.4428711 35.6083985 49.0229492 35.1889649 48.5053711 35.1889649zM48.5053711 42.987793L42.4282226 42.987793C41.9101562 42.987793 41.4907226 43.4077149 41.4907226 43.925293 41.4907226 44.4433594 41.9101562 44.862793 42.4282226 44.862793L48.5053711 44.862793C49.0229492 44.862793 49.4428711 44.4433594 49.4428711 43.925293 49.4428711 43.4077149 49.0229492 42.987793 48.5053711 42.987793z"/>
    <path d="M50.9858399,0 L4.918457,0 C2.20605475,0 3.55271368e-15,2.206543 3.55271368e-15,4.918457 L3.55271368e-15,45.6259765 C3.55271368e-15,47.8422851 1.80322263,49.6450195 4.019043,49.6450195 L4.50390625,49.6450195 C5.02197263,49.6450195 5.44140625,49.225586 5.44140625,48.7075195 C5.44140625,48.1899414 5.02197263,47.7700195 4.50390625,47.7700195 L4.019043,47.7700195 C2.836914,47.7700195 1.875,46.8081055 1.875,45.6259765 L1.875,4.918457 C1.875,3.24023437 3.24023438,1.875 4.918457,1.875 C4.97070313,1.875 5.02294925,1.87646487 5.074707,1.87890625 C5.17822263,1.88427737 5.2802735,1.89453125 5.38134763,1.91015625 C5.43115238,1.91796875 5.48144525,1.92675775 5.53076175,1.93701175 C6.91650388,2.22119137 7.961914,3.45019525 7.961914,4.918457 L7.961914,61.2402344 C7.961914,62.1137695 8.55517575,62.866211 9.4052735,63.069336 L13.0854493,63.9487305 C13.3710938,64.0170899 13.6733399,64.0170899 13.9594726,63.9487305 L18.147461,62.9487305 L22.331543,63.9487305 C22.6176758,64.0170899 22.9199219,64.0170899 23.2060548,63.9487305 L27.3930664,62.9487305 L31.578125,63.9487305 C31.8642578,64.0170899 32.1660156,64.0170899 32.4521485,63.9487305 L36.6401368,62.9487305 L40.8256836,63.9487305 C40.96875,63.9829101 41.1157226,64 41.2626953,64 C41.409668,64 41.5566406,63.9829101 41.699707,63.9487305 L45.8876953,62.9487305 L50.0737305,63.9487305 C50.359375,64.0170899 50.6616211,64.0170899 50.9477539,63.9487305 L54.6289063,63.069336 C55.4785156,62.866211 56.0722656,62.1137695 56.0722656,61.2402344 L56.0722656,5.0859375 C56.0722656,2.28173825 53.7905274,0 50.9858399,0 L50.9858399,0 Z M54.1928711,61.2456055 L50.508789,62.125 L46.3232422,61.125 C46.0371094,61.0566406 45.7348632,61.0566406 45.4492188,61.125 L41.2612305,62.125 L37.0756836,61.125 C36.790039,61.0566406 36.487793,61.0566406 36.2016601,61.125 L32.0136719,62.125 L27.8295899,61.125 C27.5429688,61.0566406 27.2402344,61.0566406 26.9545899,61.125 L22.7670899,62.125 L18.5834961,61.125 C18.4404297,61.0908203 18.2929688,61.0737305 18.1459961,61.0737305 C17.9985351,61.0737305 17.8515625,61.0908203 17.7089844,61.125 L13.5209961,62.125 L9.83642575,61.2402344 L9.83642575,4.918457 C9.83642575,4.8393555 9.83447263,4.76074225 9.83056638,4.6831055 C9.82958987,4.65771487 9.8271485,4.63330075 9.82568362,4.6083985 C9.82226562,4.55517575 9.81884763,4.50195313 9.8134765,4.44921875 C9.81103513,4.42041013 9.80761725,4.39208988 9.8046875,4.3637695 C9.79882812,4.31445313 9.79296875,4.26513675 9.7856445,4.21630863 C9.78173825,4.18798825 9.77734375,4.15917975 9.77294925,4.13085938 C9.7646485,4.08105475 9.75585938,4.03173825 9.74609375,3.98242188 C9.741211,3.956543 9.73632812,3.93017575 9.730957,3.90429688 C9.71875,3.847168 9.70556638,3.79052738 9.69140625,3.734375 C9.6875,3.71728513 9.68359375,3.699707 9.67919925,3.68261725 C9.66015625,3.60888675 9.6396485,3.53662113 9.6171875,3.4643555 C9.61230475,3.4487305 9.60693362,3.4331055 9.6015625,3.4174805 C9.58349612,3.36181638 9.56494138,3.30615238 9.54541013,3.2509765 C9.53662112,3.2265625 9.5268555,3.20263675 9.51806638,3.178711 C9.50048825,3.13232425 9.48242188,3.08642575 9.46337888,3.04101563 C9.453125,3.01513675 9.4418945,2.98974613 9.430664,2.9643555 C9.41162112,2.91992188 9.3916015,2.87646488 9.371582,2.83300775 C9.35986325,2.80859375 9.3481445,2.78369138 9.33642575,2.75927738 C9.31396487,2.71337888 9.290039,2.668457 9.26611325,2.62304688 C9.25537112,2.602539 9.24511725,2.58203125 9.23388675,2.5615235 C9.1987305,2.49755863 9.16210938,2.434082 9.12451175,2.371582 C9.1240235,2.37109375 9.12353513,2.3706055 9.12353513,2.36962888 C9.084961,2.30664062 9.04492188,2.24414062 9.003418,2.1831055 C8.99072263,2.1640625 8.977539,2.14599612 8.96484375,2.12744138 C8.93554688,2.08544925 8.90625,2.043457 8.8759765,2.00244138 C8.85986325,1.98046875 8.84326175,1.95898438 8.82666013,1.9375 C8.81103513,1.91699225 8.79541013,1.89550775 8.77929688,1.875 L50.9858399,1.875 C52.756836,1.875 54.1967774,3.31542975 54.1967774,5.0859375 L54.1928711,61.2456055 Z"/>
  </g>
</svg>
