<svg xmlns="http://www.w3.org/2000/svg" width="19" height="21" viewBox="0 0 19 21">
  <g fill="#737373" transform="translate(.7 .82)">
    <path d="M11.3035218,0 C12.0089021,0 12.5827604,0.582043763 12.5827604,1.2974855 L12.5827604,1.2974855 L12.582,2.966 L16.7657998,2.96657215 C17.1422125,2.96657215 17.4473364,3.32187876 17.4473364,3.7601987 C17.4473364,4.19851864 17.1422125,4.55382525 16.7657998,4.55382525 L15.884,4.553 L15.2036344,17.1529145 C15.2036344,18.6624173 14.3101467,19.9013207 13.053562,19.994388 L12.9010629,20 L4.95456157,20 C3.61838639,20 2.15203082,18.7227974 2.15203082,17.1529145 L2.15203082,17.1529145 L1.41,4.553 L0.681536577,4.55382525 C0.305123926,4.55382525 -5.68434189e-14,4.19851864 -5.68434189e-14,3.7601987 C-5.68434189e-14,3.32187876 0.305123926,2.96657215 0.681536577,2.96657215 L5.009,2.966 L5.0096069,1.2974855 C5.0096069,0.626758871 5.51397454,0.0732765562 6.15823592,0.00671129268 L6.28884545,0 Z M14.382,4.553 L2.931,4.553 L3.7559688,17.4747359 C3.7559688,17.9729031 4.20537993,18.3848287 4.62618707,18.4411336 L4.72257107,18.4476916 L12.7900652,18.4476916 C13.2354569,18.4476916 13.70881,18.0112237 13.70881,17.4747359 L13.70881,17.4747359 L14.382,4.553 Z M11.0476741,1.55698259 L6.54469316,1.55698259 L6.544,2.966 L11.047,2.966 L11.0476741,1.55698259 Z"/>
    <path d="M5.65774539 17.2715745C6.08658711 17.2490999 6.41690294 16.9283767 6.39725845 16.5535375L5.90022922 7.06965484C5.88058474 6.69481567 5.5185537 6.41037684 5.08971199 6.43285148 4.66087027 6.45532612 4.33055444 6.77604932 4.35019893 7.15088849L4.84722816 16.6347711C4.86687264 17.0096103 5.22890368 17.2940491 5.65774539 17.2715745zM8.72366819 17.2790117C9.15309842 17.2790117 9.49974693 16.9988532 9.49974693 16.651791L9.49974693 7.87070133C9.49974693 7.52363921 9.15309842 7.24348063 8.72366819 7.24348063 8.29423795 7.24348063 7.94758945 7.52363921 7.94758945 7.87070133L7.94758945 16.651791C7.94758945 16.9988532 8.29423795 17.2790117 8.72366819 17.2790117zM11.789591 17.2715745C12.2184327 17.2940491 12.5804637 17.0096103 12.6001082 16.6347711L13.0971375 7.15088849C13.1167819 6.77604932 12.7864661 6.45532612 12.3576244 6.43285148 11.9287827 6.41037684 11.5667516 6.69481567 11.5471072 7.06965484L11.0500779 16.5535375C11.0304334 16.9283767 11.3607493 17.2490999 11.789591 17.2715745z"/>
  </g>
</svg>
