<svg xmlns="http://www.w3.org/2000/svg" width="18" height="21" viewBox="0 0 18 21">
  <g fill="#2770A0" transform="translate(.13 .5)">
    <path d="M11.3035218,0 C12.0089021,0 12.5827604,0.582043763 12.5827604,1.2974855 L12.5827604,1.2974855 L12.582,2.966 L16.7657998,2.96657215 C17.1422125,2.96657215 17.4473364,3.32187876 17.4473364,3.7601987 C17.4473364,4.19851864 17.1422125,4.55382525 16.7657998,4.55382525 L15.884,4.553 L15.2036344,17.1529145 C15.2036344,18.6624173 14.3101467,19.9013207 13.053562,19.994388 L12.9010629,20 L4.95456157,20 C3.61838639,20 2.15203082,18.7227974 2.15203082,17.1529145 L2.15203082,17.1529145 L1.41,4.553 L0.681536577,4.55382525 C0.305123926,4.55382525 -5.68434189e-14,4.19851864 -5.68434189e-14,3.7601987 C-5.68434189e-14,3.32187876 0.305123926,2.96657215 0.681536577,2.96657215 L5.009,2.966 L5.0096069,1.2974855 C5.0096069,0.626758871 5.51397454,0.0732765562 6.15823592,0.00671129268 L6.28884545,0 Z M14.382,4.553 L2.931,4.553 L3.7559688,17.4747359 C3.7559688,17.9729031 4.20537993,18.3848287 4.62618707,18.4411336 L4.72257107,18.4476916 L12.7900652,18.4476916 C13.2354569,18.4476916 13.70881,18.0112237 13.70881,17.4747359 L13.70881,17.4747359 L14.382,4.553 Z M11.0476741,1.55698259 L6.54469316,1.55698259 L6.544,2.966 L11.047,2.966 L11.0476741,1.55698259 Z"/>
    <path d="M5.37372869,17.2790117 C5.80315893,17.2790117 6.14980743,16.9760155 6.14980743,16.6006619 L6.14980743,7.10376408 C6.14980743,6.7284105 5.80315893,6.42541424 5.37372869,6.42541424 C4.94429846,6.42541424 4.59764995,6.7284105 4.59764995,7.10376408 L4.59764995,16.6006619 C4.59764995,16.9760155 4.94429846,17.2790117 5.37372869,17.2790117 Z" transform="rotate(-3 5.374 11.852)"/>
    <path d="M8.72366819,17.2790117 C9.15309842,17.2790117 9.49974693,16.9988532 9.49974693,16.651791 L9.49974693,7.87070133 C9.49974693,7.52363921 9.15309842,7.24348063 8.72366819,7.24348063 C8.29423795,7.24348063 7.94758945,7.52363921 7.94758945,7.87070133 L7.94758945,16.651791 C7.94758945,16.9988532 8.29423795,17.2790117 8.72366819,17.2790117 Z"/>
    <path d="M12.0736077,17.2790117 C12.5030379,17.2790117 12.8496864,16.9760155 12.8496864,16.6006619 L12.8496864,7.10376408 C12.8496864,6.7284105 12.5030379,6.42541424 12.0736077,6.42541424 C11.6441775,6.42541424 11.2975289,6.7284105 11.2975289,7.10376408 L11.2975289,16.6006619 C11.2975289,16.9760155 11.6441775,17.2790117 12.0736077,17.2790117 Z" transform="rotate(3 12.074 11.852)"/>
  </g>
</svg>
