<svg xmlns="http://www.w3.org/2000/svg" width="24" height="24" viewBox="0 0 24 24">
  <g fill="none" transform="translate(0 2.701)">
    <path fill="#194F82" d="M22.5265954,3.12629008 L7.31145038,3.12629008 C6.45868702,3.12629008 5.60598473,3.78558779 5.38094656,4.63041221 L2.728,14.5632977 C2.44769466,15.5107786 3.13856489,16.4188092 4.11370992,16.4188092 L19.3287939,16.4188092 C20.1815573,16.4188092 21.0342595,15.7595115 21.2592977,14.914687 L23.9201832,4.98577099 C24.1767939,4.00665649 23.5846107,3.16970992 22.5265954,3.12629008 Z M21.3935267,4.45673282 L13.3162137,10.1416794 C13.130687,10.3193282 12.9727634,10.2600916 12.9372214,10.236458 L7.82473282,4.45679389 L21.3935267,4.45679389 L21.3935267,4.45673282 Z M6.63242748,5.11993893 L10.7145038,9.73105344 L4.25581679,13.9948092 L6.63242748,5.11993893 Z M5.02167939,15.0843969 L11.6028092,10.7417405 C11.6028092,10.7417405 11.9699542,11.1562748 11.9818015,11.1681221 C12.5147481,11.6971603 13.3516947,11.7168855 14.0662595,11.247084 L14.7847939,10.7417405 L19.0445802,15.0883664 L5.02167939,15.0883664 L5.02167939,15.0843969 Z M20.0591756,14.2158779 L15.8862901,9.96006107 L22.4318779,5.35291603 L20.0591756,14.2158779 Z"/>
    <g fill="#FFF" transform="translate(4.214 5.069)">
      <polygon points="6.501 4.662 2.419 .051 .042 8.926"/>
      <polygon points="11.672 4.895 15.845 9.147 18.218 .288"/>
    </g>
    <path fill="#56ACE0" d="M11.9818015,11.1681221 C11.9739237,11.1602443 11.6028092,10.7417405 11.6028092,10.7417405 L5.02167939,15.0843969 L19.0445191,15.0843969 L14.7847328,10.737771 L14.0661985,11.2431145 C13.3516947,11.712916 12.5147481,11.6892214 11.9818015,11.1681221 Z"/>
    <path fill="#FFC10D" d="M21.3935267,4.45673282 L7.82467176,4.45673282 L12.9371603,10.2363969 C12.9766107,10.2600916 13.130626,10.3232366 13.3161527,10.1416183 L21.3935267,4.45673282 Z"/>
    <path fill="#194F82" d="M8.35767939 1.36946565L11.9897405 1.36946565C12.3568855 1.36946565 12.656916 1.07340458 12.656916.702290076 12.656916.331175573 12.360855.0351145038 11.9897405.0351145038L8.35767939.0351145038C7.99053435.0351145038 7.69050382.331175573 7.69050382.702290076 7.69050382 1.07340458 7.98656489 1.36946565 8.35767939 1.36946565zM7.2048855 17.3583511L3.57282443 17.3583511C3.20567939 17.3583511 2.90564885 17.6544122 2.90564885 18.0255267 2.90564885 18.3966412 3.20170992 18.6927023 3.57282443 18.6927023L7.20091603 18.6927023C7.56806107 18.6927023 7.8680916 18.3966412 7.8680916 18.0255267 7.8680916 17.6544733 7.57203053 17.3583511 7.2048855 17.3583511zM.667175573 5.13575573L3.632 5.13575573C3.99914504 5.13575573 4.29917557 4.83969466 4.29917557 4.46858015 4.29917557 4.10143511 4.0031145 3.80140457 3.632 3.80140457L.667175573 3.80140457C.300030534 3.80134351 0 4.09746565 0 4.46858015.00396946565 4.83572519.300030534 5.13575573.667175573 5.13575573zM2.96879389 8.82308397C2.96879389 8.45593893 2.67273282 8.15590839 2.30161832 8.15590839L.667175573 8.15590839C.300030534 8.15584733 0 8.45196947 0 8.82308397 0 9.19419847.296061069 9.49025954.667175573 9.49025954L2.30161832 9.49025954C2.66876336 9.48629008 2.96879389 9.19022901 2.96879389 8.82308397zM1.63444275 13.367084L.667175573 13.367084C.300030534 13.367084 0 13.671084 0 14.038229 0 14.405374.296061069 14.7054046.667175573 14.7054046L1.63438168 14.7054046C2.00152672 14.7054046 2.30155725 14.4093435 2.30155725 14.038229 2.30155725 13.6671145 2.00549618 13.367084 1.63444275 13.367084z"/>
  </g>
</svg>
