<svg xmlns="http://www.w3.org/2000/svg" width="25" height="25" viewBox="0 0 25 25">
  <g fill="none" transform="translate(.5 .075)">
    <path fill="#FFC10D" d="M11.9345344.715175573C11.9345344.348030534 11.6384733.048 11.2673588.048L.722564885.048C.355419847.048.055389313.344061069.055389313.715175573L.055389313 3.88928244 11.9345344 3.88928244 11.9345344.715175573 11.9345344.715175573zM.055389313 20.6914198C.055389313 21.0585649.351450382 21.3585954.722564885 21.3585954L11.2712672 21.3585954C11.6384122 21.3585954 11.9384427 21.0625344 11.9384427 20.6914198L11.9384427 17.651542.055389313 17.651542.055389313 20.6914198z" transform="translate(1.282 1.282)"/>
    <rect width="11.879" height="11.09" x="1.338" y="6.506" fill="#FFF"/>
    <path fill="#56ACE0" d="M2.66827481,7.83645802 L2.66827481,8.92610687 L5.46729771,8.92610687 C5.83444275,8.92610687 6.13447328,9.22216794 6.13447328,9.59328244 C6.13447328,9.96042748 5.83841221,10.260458 5.46729771,10.260458 L2.66827481,10.260458 L2.66827481,11.5909008 L3.46967939,11.5909008 C3.83682443,11.5909008 4.13685496,11.8869618 4.13685496,12.2580763 C4.13685496,12.6291908 3.84079389,12.9252519 3.46967939,12.9252519 L2.66827481,12.9252519 L2.66827481,16.2651603 L11.882626,16.2651603 L11.882626,7.83645802 L2.66827481,7.83645802 L2.66827481,7.83645802 Z"/>
    <g fill="#194F82">
      <path d="M17.2991145,9.71175573 C17.0385344,9.45117557 16.6200916,9.45117557 16.355542,9.71175573 C16.0949618,9.97233588 16.0949618,10.3907786 16.355542,10.6553282 C17.0859237,11.3896183 17.0859237,12.5858321 16.355542,13.3162137 C16.0949618,13.5767939 16.0831145,14.0110534 16.355542,14.2597863 C16.7621985,14.6269313 17.1687939,14.3900458 17.2991145,14.2597863 C18.546626,13.0042748 18.546626,10.9672061 17.2991145,9.71175573 Z"/>
      <path d="M19.3361832,7.67071756 C19.0756031,7.4101374 18.6571603,7.4101374 18.3926107,7.67071756 C18.1320305,7.93129771 18.1320305,8.34974046 18.3926107,8.61429008 C20.2520305,10.4737099 20.2520305,13.4978321 18.3926107,15.3533435 C18.1320305,15.6139237 18.1123053,16.0560611 18.3926107,16.296916 C18.8268702,16.6640611 19.2058626,16.4271756 19.3361832,16.296916 C20.4889771,15.1441221 21.1206107,13.6123359 21.1206107,11.9818626 C21.1206107,10.3513893 20.4889771,8.82351145 19.3361832,7.67071756 Z"/>
      <path d="M21.3574962 5.65728244C21.096916 5.39670229 20.6784733 5.39670229 20.4139237 5.65728244 20.1533435 5.9178626 20.1533435 6.33630534 20.4139237 6.60085496 23.386687 9.57361832 23.386687 14.4058015 20.4139237 17.3785649 20.1533435 17.639145 20.1336183 18.077313 20.4139237 18.3221374 20.8324275 18.685313 21.2271756 18.4523969 21.3574962 18.3221374 24.8434809 14.8282137 24.8434809 9.14326718 21.3574962 5.65728244zM12.5498015 0L2.00500763 0C.899603053 0 .00348091603.896183206.00348091603 1.99761832L.00348091603 21.9738626C.00348091603 23.0792672.899664122 23.9754504 2.0050687 23.9754504L12.553771 23.9754504C13.6552061 23.9754504 14.5513893 23.0792672 14.5513893 21.9778321L14.5513893 1.99761832C14.5474198.896183206 13.6512366 0 12.5498015 0zM13.2169771 21.9738626C13.2169771 22.3410076 12.920916 22.6410382 12.5498015 22.6410382L2.00500763 22.6410382C1.6378626 22.6410382 1.33783206 22.3449771 1.33783206 21.9738626L1.33783206 18.9339847 13.2169771 18.9339847 13.2169771 21.9738626 13.2169771 21.9738626zM13.2169771 17.5956641L1.33783206 17.5956641 1.33783206 6.50607634 13.2169771 6.50607634 13.2169771 17.5956641zM13.2169771 5.17172519L1.33783206 5.17172519 1.33783206 1.99761832C1.33783206 1.63047328 1.63389313 1.33044275 2.00500763 1.33044275L12.5537099 1.33044275C12.920855 1.33044275 13.2208855 1.62650382 13.2208855 1.99761832L13.2208855 5.17172519 13.2169771 5.17172519z"/>
      <path d="M8.67694656 2.6608855L5.87792366 2.6608855C5.51077863 2.6608855 5.21074809 2.95694656 5.21074809 3.32806107 5.21074809 3.69917557 5.50680916 3.99523664 5.87792366 3.99523664L8.67694656 3.99523664C9.0440916 3.99523664 9.34412214 3.69917557 9.34412214 3.32806107 9.34412214 2.95694656 9.0440916 2.6608855 8.67694656 2.6608855zM3.54864122 21.377771L5.01722137 21.377771C5.38436641 21.377771 5.68439695 21.0817099 5.68439695 20.7105954 5.68439695 20.3434504 5.38833588 20.0434198 5.01722137 20.0434198L3.54864122 20.0434198C3.18149618 20.0434198 2.88146565 20.3394809 2.88146565 20.7105954 2.88146565 21.073771 3.17752672 21.377771 3.54864122 21.377771zM9.54149618 21.377771L11.0100763 21.377771C11.3772214 21.377771 11.6772519 21.0817099 11.6772519 20.7105954 11.6772519 20.3434504 11.3811908 20.0434198 11.0100763 20.0434198L9.54149618 20.0434198C9.17435115 20.0434198 8.87432061 20.3394809 8.87432061 20.7105954 8.87432061 21.073771 9.17044275 21.377771 9.54149618 21.377771z"/>
    </g>
  </g>
</svg>
