<svg xmlns="http://www.w3.org/2000/svg" width="20" height="13" viewBox="0 0 20 13">
  <g fill="#2770A0">
    <path d="M10,13 C6.25665722,13 2.67250081,10.2307195 0.30664351,7.35574696 C-0.102214503,6.85886631 -0.102214503,6.13759793 0.30664351,5.64075598 C0.901475534,4.91790087 2.14802484,3.52331451 3.81320812,2.30450757 C8.00732234,-0.765207858 11.9845567,-0.771129094 16.1867919,2.30450757 C18.1430599,3.73632418 19.6933565,5.61389757 19.6933565,5.64075598 C20.1022145,6.13759793 20.1022145,6.85886631 19.6933565,7.35570826 C17.3278456,10.2303325 13.7441895,13 10,13 Z M9.99956938,1 C5.76846496,1 2.10072763,5.15537132 1.07743057,6.42894485 C1.04436525,6.47011397 1.04436525,6.52988603 1.07743057,6.57105515 C2.1007669,7.84462868 5.76846496,12 9.99956938,12 C14.2306738,12 17.8984111,7.84462868 18.9217082,6.57105515 C18.9813593,6.49676471 18.9177812,6.42894485 18.9217082,6.42894485 C17.8983719,5.15537132 14.2306738,1 9.99956938,1 Z"/>
    <path d="M10,2.5 C7.69469729,2.5 5.81578947,4.28496243 5.81578947,6.5 C5.81578947,8.71503757 7.69469729,10.5 10,10.5 C12.3053027,10.5 14.1842105,8.71503757 14.1842105,6.5 C14.1842105,4.28496243 12.3053027,2.5 10,2.5 Z M10,3.5 C11.7641639,3.5 13.1842105,4.84904432 13.1842105,6.5 C13.1842105,8.15095568 11.7641639,9.5 10,9.5 C8.23583613,9.5 6.81578947,8.15095568 6.81578947,6.5 C6.81578947,4.84904432 8.23583613,3.5 10,3.5 Z"/>
  </g>
</svg>
