<svg xmlns="http://www.w3.org/2000/svg" width="25" height="24" viewBox="0 0 25 24">
  <g fill="none" transform="translate(.1)">
    <path fill="#56ACE0" d="M22.6430534,1.99761832 C22.6430534,1.63047328 22.3469924,1.33044275 21.9758779,1.33044275 L1.99957252,1.33044275 C1.63242748,1.33044275 1.33239695,1.62650382 1.33239695,1.99761832 L1.33239695,5.40464122 L22.6430534,5.40464122 L22.6430534,1.99761832 L22.6430534,1.99761832 Z"/>
    <path fill="#FFF" d="M10.4480611,22.6410382 L21.9719084,22.6410382 C22.3390534,22.6410382 22.639084,22.3449771 22.639084,21.9738626 L22.639084,6.73508397 L10.4480611,6.73508397 L10.4480611,22.6410382 Z"/>
    <path fill="#FFC10D" d="M1.33239695,6.73508397 L1.33239695,21.9738626 C1.33239695,22.3410076 1.62845802,22.6410382 1.99957252,22.6410382 L10.448,22.6410382 L10.448,6.73508397 L1.33239695,6.73508397 Z"/>
    <g fill="#194F82">
      <path d="M15.3394809 2.73587786L2.77337405 2.73587786C2.40622901 2.73587786 2.10619847 3.03193893 2.10619847 3.40305344 2.10619847 3.77019847 2.40225954 4.07022901 2.77337405 4.07022901L15.3394809 4.07022901C15.706626 4.07022901 16.0066565 3.77416794 16.0066565 3.40305344 16.002687 3.03193893 15.706626 2.73587786 15.3394809 2.73587786zM20.0018931 2.73587786L18.6398779 2.73587786C18.2727328 2.73587786 17.9727023 3.03193893 17.9727023 3.40305344 17.9727023 3.77019847 18.2687634 4.07022901 18.6398779 4.07022901L20.0018931 4.07022901C20.3690382 4.07022901 20.6690687 3.77416794 20.6690687 3.40305344 20.6651603 3.03193893 20.3690382 2.73587786 20.0018931 2.73587786zM6.07774046 18.2233893C5.34345038 18.2233893 4.74332824 17.6233282 4.74332824 16.8890382 4.74332824 16.5218931 4.44726718 16.2218626 4.07615267 16.2218626 3.70503817 16.2218626 3.4089771 16.5179237 3.4089771 16.8890382 3.4089771 18.1286718 4.26174046 19.1748397 5.41056489 19.4709618L5.41056489 20.1025954C5.41056489 20.4697405 5.70662595 20.769771 6.07774046 20.769771 6.4448855 20.769771 6.74491603 20.4736489 6.74491603 20.1025954L6.74491603 19.4669924C7.89770992 19.1709313 8.74650382 18.1286718 8.74650382 16.8850687 8.74650382 15.4125191 7.44763359 14.2241832 5.97508397 14.2241832 5.99877863 14.2202137 5.97508397 14.2241832 5.9711145 14.2241832 5.28024427 14.168916 4.73935878 13.5925496 4.73935878 12.8937405 4.73935878 12.1594504 5.33941985 11.5593893 6.07377099 11.5593893 6.80812214 11.5593893 7.40818321 12.1594504 7.40818321 12.8937405 7.40818321 13.2608855 7.70424427 13.560916 8.07535878 13.560916 8.44647328 13.560916 8.74253435 13.264855 8.74253435 12.8937405 8.74253435 11.6541069 7.88977099 10.6079389 6.74094656 10.3118168L6.74094656 9.67621374C6.74094656 9.3090687 6.4448855 9.00903817 6.07377099 9.00903817 5.70265649 9.00903817 5.40659542 9.30509924 5.40659542 9.67621374L5.40659542 10.3118168C4.25380153 10.6078779 3.40500763 11.6501374 3.40500763 12.8937405 3.40500763 14.3662901 4.60519084 15.5585344 6.06980153 15.5585344 6.04610687 15.5625038 6.06980153 15.5585344 6.07377099 15.5585344 6.76464122 15.6138015 7.40421374 16.1822901 7.40421374 16.8850076 7.42003053 17.6233282 6.81996947 18.2233893 6.07774046 18.2233893zM20.0018931 10.4697405L12.9233588 10.4697405C12.5562137 10.4697405 12.2561832 10.1736794 12.2561832 9.80256489 12.2561832 9.43541985 12.5522443 9.13538931 12.9233588 9.13538931L20.0018931 9.13538931C20.3690382 9.13538931 20.6690687 9.43145038 20.6690687 9.80256489 20.6651603 10.1736794 20.3690382 10.4697405 20.0018931 10.4697405zM20.0018931 13.8610076L12.9233588 13.8610076C12.5562137 13.8610076 12.2561832 13.5649466 12.2561832 13.1938321 12.2561832 12.826687 12.5522443 12.5266565 12.9233588 12.5266565L20.0018931 12.5266565C20.3690382 12.5266565 20.6690687 12.8227176 20.6690687 13.1938321 20.6651603 13.5609771 20.3690382 13.8610076 20.0018931 13.8610076zM20.0018931 17.2482443L12.9233588 17.2482443C12.5562137 17.2482443 12.2561832 16.9521832 12.2561832 16.5810687 12.2561832 16.2139237 12.5522443 15.9138931 12.9233588 15.9138931L20.0018931 15.9138931C20.3690382 15.9138931 20.6690687 16.2099542 20.6690687 16.5810687 20.6651603 16.9482137 20.3690382 17.2482443 20.0018931 17.2482443zM20.0018931 20.635542L12.9233588 20.635542C12.5562137 20.635542 12.2561832 20.3394809 12.2561832 19.9683664 12.2561832 19.6012214 12.5522443 19.3011908 12.9233588 19.3011908L20.0018931 19.3011908C20.3690382 19.3011908 20.6690687 19.5972519 20.6690687 19.9683664 20.6651603 20.3394809 20.3690382 20.635542 20.0018931 20.635542z"/>
      <path d="M21.9758779,0 L1.99957252,0 C0.898137405,0 0.00195419847,0.896183206 0.00195419847,1.99761832 L0.00195419847,21.9738626 C0.00195419847,23.0792672 0.898137405,23.9754504 1.99957252,23.9754504 L21.9758168,23.9754504 C23.0772519,23.9754504 23.9734351,23.0792672 23.9734351,21.9778321 L23.9734351,1.99761832 C23.9734351,0.896183206 23.077313,0 21.9758779,0 Z M22.6430534,21.9738626 C22.6430534,22.3410076 22.3469924,22.6410382 21.9758779,22.6410382 L10.4480611,22.6410382 L1.99957252,22.6410382 C1.63242748,22.6410382 1.33239695,22.3449771 1.33239695,21.9738626 L1.33239695,6.73508397 L10.4480611,6.73508397 L22.6351756,6.73508397 L22.6351756,21.9738626 L22.6430534,21.9738626 Z M1.33239695,1.99761832 C1.33239695,1.63047328 1.62845802,1.33044275 1.99957252,1.33044275 L21.9758168,1.33044275 C22.3429618,1.33044275 22.6429924,1.62650382 22.6429924,1.99761832 L22.6429924,5.40464122 L1.33239695,5.40464122 L1.33239695,1.99761832 Z"/>
    </g>
  </g>
</svg>
