<svg xmlns="http://www.w3.org/2000/svg" width="25" height="24" viewBox="0 0 25 24">
  <g fill="none" transform="translate(3.4)">
    <path fill="#FFF" d="M1.33927366,22.6219335 L11.5530844,22.6219335 L11.5530844,17.6301176 C11.5530844,17.2650844 11.8506598,16.9634578 12.2197442,16.9634578 L17.2115601,16.9634578 L17.2115601,1.32932992 L1.33927366,1.32932992 L1.33927366,22.6219335 Z"/>
    <polygon fill="#56ACE0" points="12.918 21.689 16.279 18.297 12.918 18.297"/>
    <path fill="#194F82" d="M17.9059642,0 L0.676603581,0 C0.311570332,0 0.00994373402,0.297575448 0.00994373402,0.666659847 L0.00994373402,23.284665 C0.00994373402,23.6496982 0.307519182,23.9513248 0.676603581,23.9513248 L12.2197442,23.9513248 C12.3863939,23.9513248 12.5530435,23.883867 12.6840307,23.7529412 L18.3385166,18.0984552 C18.4734322,17.9635396 18.5369003,17.8008798 18.5369003,17.6341688 L18.5369003,0.666659847 C18.5725627,0.297575448 18.2749872,0 17.9059642,0 Z M12.9180767,21.6894936 L12.9180767,18.2967775 L16.2790588,18.2967775 L12.9180767,21.6894936 Z M17.2432941,16.9674476 L12.2514783,16.9674476 C11.886445,16.9674476 11.5848184,17.265023 11.5848184,17.6341074 L11.5848184,22.6259233 L1.33927366,22.6259233 L1.33927366,1.32932992 L17.2075703,1.32932992 L17.2075703,16.9635192 L17.2432941,16.9635192 L17.2432941,16.9674476 Z"/>
    <path fill="#FFC10D" d="M12.2355806,16.9674476 L15.8941381,16.9674476 L15.8941381,2.66258824 L2.65663427,2.66258824 L2.65663427,21.292665 L11.5729105,21.292665 L11.5729105,17.6341074 C11.5729105,17.2650844 11.8704859,16.9674476 12.2355806,16.9674476 Z"/>
    <path fill="#194F82" d="M2.22426598.0167570332L.660828645.0167570332C.327529412.0167570332.0298925831.282598465.0298925831.647693095.0298925831 1.01278772.295734015 1.27862916.660828645 1.27862916L2.22426598 1.27862916C2.55756522 1.27862916 2.85520205 1.01278772 2.85520205.647693095 2.85520205.282598465 2.55756522.0167570332 2.22426598.0167570332zM5.01778005 1.28255754L11.9024041 1.28255754C12.2357033 1.28255754 12.5333402 1.01671611 12.5333402.651621483 12.5333402.286526854 12.2674987.020685422 11.9024041.020685422L5.01778005.020685422C4.68448082.020685422 4.38684399.286526854 4.38684399.651621483 4.38684399 1.01671611 4.68840921 1.28255754 5.01778005 1.28255754zM2.22426598 3.37767775L.660828645 3.37767775C.327529412 3.37767775.0298925831 3.64351918.0298925831 4.00861381.0298925831 4.34191304.295734015 4.63954987.660828645 4.63954987L2.22426598 4.63954987C2.55756522 4.63954987 2.85520205 4.37370844 2.85520205 4.00861381 2.85520205 3.67531458 2.55756522 3.37767775 2.22426598 3.37767775zM5.01778005 4.63954987L11.9024041 4.63954987C12.2357033 4.63954987 12.5333402 4.37370844 12.5333402 4.00861381 12.5333402 3.67531458 12.2674987 3.37767775 11.9024041 3.37767775L5.01778005 3.37767775C4.68448082 3.37767775 4.38684399 3.64351918 4.38684399 4.00861381 4.38684399 4.34191304 4.68840921 4.63954987 5.01778005 4.63954987zM2.22426598 6.73865985L.660828645 6.73865985C.327529412 6.73865985.0298925831 7.00450128.0298925831 7.36959591.0298925831 7.70289514.295734015 8.00053197.660828645 8.00053197L2.22426598 8.00053197C2.55756522 8.00053197 2.85520205 7.73469054 2.85520205 7.36959591 2.85520205 7.00450128 2.55756522 6.73865985 2.22426598 6.73865985zM5.01778005 7.96873657L11.9024041 7.96873657C12.2357033 7.96873657 12.5333402 7.70289514 12.5333402 7.33780051 12.5333402 7.00450128 12.2674987 6.70686445 11.9024041 6.70686445L5.01778005 6.70686445C4.68448082 6.70686445 4.38684399 6.97270588 4.38684399 7.33780051 4.38684399 7.70289514 4.68840921 7.96873657 5.01778005 7.96873657zM2.22426598 10.0956522L.660828645 10.0956522C.327529412 10.0956522.0298925831 10.3614936.0298925831 10.7265882.0298925831 11.0598875.295734015 11.3575243.660828645 11.3575243L2.22426598 11.3575243C2.55756522 11.3575243 2.85520205 11.0916829 2.85520205 10.7265882 2.85520205 10.3614936 2.55756522 10.0956522 2.22426598 10.0956522zM11.9063325 11.3257289C12.2396317 11.3257289 12.5372685 11.0598875 12.5372685 10.6947928 12.5372685 10.3614936 12.2714271 10.0638568 11.9063325 10.0638568L5.01778005 10.0638568C4.68448082 10.0638568 4.38684399 10.3296982 4.38684399 10.6947928 4.38684399 11.0280921 4.65268542 11.3257289 5.01778005 11.3257289L11.9063325 11.3257289z" transform="translate(3.008 3.376)"/>
  </g>
</svg>
