<svg xmlns="http://www.w3.org/2000/svg" width="20" height="20" viewBox="0 0 20 20">
  <path fill="#DA1A1A" d="M11.0471535,12.8867958 C11.0471535,13.5253211 10.503952,14.0429482 9.83387898,14.0429482 C9.16380594,14.0429482 8.62060442,13.5253211 8.62060442,12.8867958 L8.62060442,8.3412911 C8.62060442,7.70276573 9.16380594,7.18513865 9.83387898,7.18513865 C10.503952,7.18513865 11.0471535,7.70276573 11.0471535,8.3412911 L11.0471535,12.8867958 Z M9.77002242,17.0671997 C9.282502,17.0895841 8.82976077,16.8269849 8.626692,16.4040444 C8.42362324,15.9811039 8.5111099,15.4829711 8.84762652,15.1460841 C9.18414314,14.8091972 9.70194026,14.7013803 10.1552459,14.8738086 C10.6085515,15.0462369 10.9061035,15.4641961 10.9066691,15.9293022 C10.9152543,16.2230531 10.80097,16.5080119 10.5889804,16.7214338 C10.3769908,16.9348557 10.0846787,17.0592404 9.77640808,17.0671997 M18.9589808,17.4627255 L10.6576285,1.03319057 C10.4774129,0.632907572 10.0642746,0.373419562 9.6071882,0.373419562 C9.15010185,0.373419562 8.73696355,0.632907572 8.55674786,1.03319057 L0.25539563,17.4627255 C0.0507348417,17.8620816 0.0507348417,18.3290521 0.25539563,18.7284082 C0.456031451,19.1195909 0.871289662,19.3692634 1.32818577,19.3734196 L17.9308902,19.3734196 C18.3686816,19.3545175 18.7595181,19.1062271 18.9462095,18.7284082 C19.1537969,18.3297013 19.1537969,17.8614324 18.9462095,17.4627255"/>
</svg>
